<?xml version="1.0" encoding="UTF-8"?>
<svg id="Layer_2" data-name="Layer 2" xmlns="http://www.w3.org/2000/svg" xmlns:xlink="http://www.w3.org/1999/xlink" viewBox="0 0 142.66 133.85">
  <defs>
    <style>
      .cls-1 {
        fill: #f0f0f0;
      }

      .cls-2, .cls-3, .cls-4, .cls-5, .cls-6, .cls-7 {
        fill: #fff;
      }

      .cls-3, .cls-4, .cls-8, .cls-5, .cls-9, .cls-10, .cls-6, .cls-11, .cls-12, .cls-7, .cls-13 {
        isolation: isolate;
      }

      .cls-3, .cls-14, .cls-12 {
        opacity: .1;
      }

      .cls-15 {
        fill: #fafafa;
      }

      .cls-16, .cls-13 {
        opacity: .5;
      }

      .cls-17, .cls-9, .cls-11, .cls-7 {
        opacity: .2;
      }

      .cls-4, .cls-8, .cls-18 {
        opacity: .3;
      }

      .cls-19 {
        fill: #f5f5f5;
      }

      .cls-20 {
        fill: #e0e0e0;
      }

      .cls-5 {
        opacity: .6;
      }

      .cls-9, .cls-21 {
        fill: #263238;
      }

      .cls-10, .cls-6, .cls-22 {
        opacity: .4;
      }

      .cls-10, .cls-23 {
        fill: #407bff;
      }

      .cls-24 {
        fill: #ebebeb;
      }

      .cls-25 {
        fill: #ff8b7b;
      }

      .cls-26 {
        fill: url(#linear-gradient);
      }

      .cls-27 {
        fill: #a02724;
      }
    </style>
    <linearGradient id="linear-gradient" x1="-.02" y1="173.34" x2="93.3" y2="34.98" gradientUnits="userSpaceOnUse">
      <stop offset="0" stop-color="#363a50"/>
      <stop offset=".59" stop-color="#363a50"/>
      <stop offset="1" stop-color="#262939"/>
    </linearGradient>
  </defs>
  <g id="Layer_1-2" data-name="Layer 1">
    <g>
      <path class="cls-26" d="m76.45,133.85c6.03-8.55,16.99-9.98,26.68-9.96,7.6.02,15.59.33,22.35-3.15,8.21-4.24,12.91-13.44,14.12-22.6s-.54-18.42-2.28-27.5c-.69,5.06-1.39,10.13-2.08,15.19.25-21.22,9.92-42.05,6.8-63.04-.77-5.16-2.39-10.35-5.75-14.34C129.89.87,118.78-.69,108.91.24c-14.16,1.33-27.62,6.59-41.77,7.97s-27.59-4.05-40.83-.02c-8.98,2.73-16.21,9.93-20.21,18.42C.83,37.77,2.67,49.09,1.12,60.84c-.67,5.06-1.97,10.31-.34,15.14,2.19,6.5,9.19,10.6,11.01,17.22,2.07,7.55-3.34,15.33-2.51,23.12.8,7.52,7.51,13.42,14.82,15.34,13.21,3.48,24.11-4.41,36.86-4.71,6.03-.14,10.57,4.11,15.48,6.9"/>
      <g>
        <g id="freepik--background-complete--inject-1">
          <rect class="cls-24" x="110.39" y="102.72" width="7.12" height=".05"/>
          <rect class="cls-24" x="90.12" y="103.3" width="1.87" height=".05"/>
          <rect class="cls-24" x="106.05" y="100.72" width="4.13" height=".05"/>
          <rect class="cls-24" x="32.04" y="101.08" width="9.29" height=".05"/>
          <rect class="cls-24" x="43.25" y="101.08" width="1.36" height=".05"/>
          <rect class="cls-24" x="49.03" y="101.99" width="20.15" height=".05"/>
          <path class="cls-24" d="m71.73,89.67H30.2c-.68,0-1.23-.55-1.23-1.23V30.07c0-.67.55-1.22,1.23-1.22h41.52c.68,0,1.23.55,1.23,1.23h0v58.36c0,.68-.55,1.23-1.23,1.23ZM30.2,28.89c-.65,0-1.17.53-1.17,1.17v58.37c0,.65.52,1.17,1.17,1.17h41.52c.65,0,1.17-.53,1.17-1.17V30.07c0-.65-.53-1.17-1.17-1.17H30.2Z"/>
          <path class="cls-24" d="m118.24,89.67h-41.53c-.68,0-1.23-.55-1.23-1.23V30.07c0-.67.55-1.22,1.23-1.22h41.53c.67,0,1.22.54,1.22,1.22v58.37c0,.68-.55,1.23-1.22,1.23Zm-41.53-60.77c-.65,0-1.17.53-1.17,1.17v58.37c0,.65.53,1.17,1.17,1.17h41.53c.65,0,1.17-.53,1.17-1.17V30.07c0-.65-.53-1.17-1.17-1.17h-41.53Z"/>
          <rect class="cls-24" x="20.76" y="99.26" width="107.52" height=".05"/>
          <rect class="cls-1" x="48.02" y="63.32" width="4.82" height="35.92"/>
          <rect class="cls-1" x="56.05" y="51.07" width="4.82" height="48.16"/>
          <rect class="cls-1" x="64.08" y="63.32" width="4.82" height="35.92"/>
          <rect class="cls-1" x="31.96" y="75.56" width="4.82" height="23.67"/>
          <rect class="cls-1" x="39.99" y="69.65" width="4.82" height="29.58"/>
          <rect class="cls-1" x="72.11" y="75.56" width="4.82" height="23.67"/>
          <rect class="cls-1" x="112.26" y="38.82" width="4.82" height="60.41"/>
          <rect class="cls-1" x="80.14" y="63.32" width="4.82" height="35.92"/>
          <rect class="cls-1" x="104.23" y="51.07" width="4.82" height="48.16"/>
          <rect class="cls-1" x="96.2" y="57.4" width="4.82" height="41.83"/>
          <rect class="cls-1" x="88.17" y="69.65" width="4.82" height="29.58"/>
          <polygon class="cls-1" points="95.73 50.04 97.45 54.08 106.29 47.71 108.87 39.8 113.57 35.67 114.66 36.91 117.12 30.86 110.1 31.23 111.34 32.63 106.62 36.68 104.27 44.66 95.73 50.04"/>
          <circle class="cls-24" cx="34.14" cy="60.34" r="3.36"/>
          <circle class="cls-15" cx="34.54" cy="60.34" r="3.36"/>
          <circle class="cls-1" cx="34.54" cy="60.34" r="2.52"/>
          <path class="cls-2" d="m35.65,60.87c.1.56-.29.93-.97.99v.46h-.43v-.46c-.35-.03-.7-.14-1.01-.32l.19-.52c.25.17.54.27.85.3l.02-.71c-.41-.12-.86-.27-.95-.78-.1-.56.29-.93,1-.98v-.46h.43v.46c.28.02.56.11.81.24l-.18.5c-.2-.12-.43-.19-.66-.22l-.02.74c.4.12.84.27.93.75Zm-1.35-.86l.02-.6c-.23.05-.34.17-.32.33s.14.2.31.27h0Zm.69.97c-.02-.12-.13-.2-.29-.25v.57c.21-.05.32-.16.29-.32Z"/>
          <path class="cls-1" d="m62.27,43.09c1.18,2.52-.4,5.03-2.69,5.99-2.09.92-4.52-.03-5.44-2.12-.06-.13-.11-.26-.15-.4-.8-2.35.03-6.13,2.32-7.09,0,0,4.41.29,5.96,3.61Z"/>
          <path class="cls-2" d="m59.77,44.49c.36.55.13,1.11-.58,1.48l.2.49-.45.19-.2-.49c-.4.13-.82.17-1.24.11l-.04-.63c.35.06.7.04,1.04-.06l-.31-.76c-.49.06-1.05.1-1.38-.4-.36-.55-.12-1.12.6-1.49l-.2-.49.45-.19.22.5c.32-.1.65-.14.98-.11l.07.62c-.27-.04-.55-.01-.81.07l.32.79c.48-.06,1.02-.1,1.33.37Zm-1.84-.31l-.26-.65c-.22.15-.28.34-.18.5.11.12.28.18.45.15Zm1.19.72c-.11-.12-.27-.18-.43-.14l.26.61c.22-.15.28-.32.17-.48Z"/>
          <path class="cls-1" d="m55.15,40.32l-1.16-1.08s.13-1.04.76-1.34c.35-.19.76-.2,1.11-.03l1.16-.86.19,2.65s-.81,1.43-2.07.66Z"/>
          <path class="cls-20" d="m56.46,39.73c-.29-.47-.56-.96-.84-1.43-.22-.08-.46-.05-.65.08-.19.14-.3.35-.31.58.25.4.55.76.89,1.08.05-.2.75-.41.91-.3Z"/>
          <path class="cls-20" d="m56.69,39.71l-.22-1.59c-.07.08-.12.15-.19.23.07.32.26,1.29.29,1.33l.11.03Z"/>
          <path class="cls-15" d="m87.52,60.6c-3.58,2.17-7.18-2.12-10.75.04,0-1.99,0-3.99-.02-5.98,3.58-2.17,7.18,2.12,10.75-.04l.02,5.98Z"/>
          <path class="cls-1" d="m87.04,59.91l-.02-4.1c-.14.09-.33.04-.42-.1-.03-.05-.05-.12-.04-.18-2.95.94-5.92-1.75-8.88-.82-.02.28-.2.52-.46.63l.02,4.1c.14-.09.33-.04.41.1.03.05.05.12.04.18,2.95-.94,5.92,1.75,8.88.82.02-.28.2-.52.46-.63Z"/>
          <path class="cls-2" d="m81.87,57.21s.02.08.04.11c.04.04.08.07.12.1v-.32s-.09,0-.12.03c-.03.02-.04.05-.04.09Z"/>
          <path class="cls-2" d="m82.26,57.87v.31s.08,0,.12-.02c.03-.02.04-.05.04-.08,0-.04-.02-.08-.04-.11-.03-.04-.08-.07-.12-.1Z"/>
          <path class="cls-2" d="m82.12,55.95c-.93-.29-1.68.3-1.67,1.23s.76,1.84,1.69,2.13,1.68-.3,1.67-1.23-.76-1.83-1.69-2.12Zm.53,2.47c-.12.07-.26.08-.39.05v.25l-.23-.07v-.25c-.11-.04-.22-.09-.32-.15-.09-.05-.17-.12-.24-.19l.12-.24c.06.06.13.12.2.16.07.05.15.09.24.12v-.37c-.09-.05-.18-.11-.27-.17-.07-.05-.13-.12-.18-.19-.05-.08-.08-.17-.08-.26,0-.11.04-.22.13-.28.12-.07.26-.08.39-.05v-.25l.23.07v.25c.17.06.32.15.46.27l-.11.24c-.1-.09-.22-.16-.35-.22v.38c.09.05.18.1.27.16.07.05.14.12.18.19.05.08.08.17.08.26,0,.11-.04.22-.13.28h0Z"/>
          <path class="cls-15" d="m88.36,59.6c-3.57,2.17-7.18-2.12-10.75.04,0-1.99-.02-3.99-.02-5.98,3.57-2.17,7.18,2.12,10.75-.04l.02,5.98Z"/>
          <path class="cls-1" d="m87.87,58.93l-.02-4.1c-.14.09-.32.05-.41-.09-.04-.06-.05-.12-.05-.19-2.95.94-5.92-1.75-8.88-.82-.02.28-.19.53-.46.65l.02,4.1c.14-.09.33-.04.41.1.03.06.05.12.04.19,2.95-.94,5.92,1.75,8.88.82.02-.28.2-.53.46-.64Z"/>
          <path class="cls-2" d="m82.71,56.23s.02.08.04.1c.04.04.08.07.12.1v-.32s-.09,0-.13.03c-.03.02-.04.06-.04.09Z"/>
          <path class="cls-2" d="m83.1,56.88v.31s.09,0,.12-.02c.03-.02.04-.05.04-.08,0-.04-.01-.08-.04-.11-.04-.04-.08-.07-.12-.1Z"/>
          <path class="cls-2" d="m82.96,54.97c-.93-.29-1.68.3-1.67,1.23,0,.93.76,1.84,1.69,2.12s1.68-.3,1.67-1.23-.76-1.84-1.69-2.13Zm.53,2.47c-.12.07-.26.08-.39.05v.25l-.23-.07v-.25c-.11-.04-.22-.09-.32-.15-.09-.05-.17-.12-.24-.19l.12-.24c.06.06.13.12.2.16.07.05.15.09.24.12v-.38c-.09-.05-.18-.1-.27-.16-.07-.05-.14-.12-.18-.19-.05-.08-.08-.17-.08-.26,0-.11.04-.22.14-.28.12-.07.26-.08.39-.05v-.25l.22.07v.25c.17.06.33.15.47.27-.04.08-.08.16-.11.24-.1-.09-.22-.16-.35-.22v.38c.09.05.18.1.27.16.07.05.14.12.18.19.05.08.08.17.08.26,0,.11-.04.21-.13.28Z"/>
        </g>
        <g id="freepik--Shadow--inject-1">
          <ellipse id="freepik--path--inject-1" class="cls-19" cx="74.52" cy="106.42" rx="41.7" ry="2.43"/>
        </g>
        <g id="freepik--Device--inject-1">
          <path class="cls-21" d="m49.12,104.79v.45c0,.23.2.42.43.42h16.03c.21,0,.39-.17.39-.39v-.43c0-.21-.17-.39-.39-.39h-4c-.4,0-.73-.33-.73-.73,0-.04,0-.09.01-.13l1.4-8.08h-9.11l-3.9,8.63c-.09.2-.14.42-.14.64Z"/>
          <path class="cls-7" d="m65.96,104.84v.43c0,.21-.17.39-.38.39,0,0,0,0,0,0h-16.03c-.23,0-.42-.19-.43-.42v-.45c0-.12.01-.24.04-.35.02-.1.06-.2.1-.29l3.91-8.63h9.11l-1.4,8.08s-.01.09-.01.14c0,.34.25.63.58.7.05.01.1.02.15.02h3.99c.21,0,.39.17.39.38,0,0,0,0,0,0Z"/>
          <path class="cls-21" d="m48.74,104.15l3.9-8.63h.51l-3.9,8.63c-.09.2-.14.42-.14.65v.45c0,.23.2.42.43.42h-.52c-.23,0-.42-.19-.43-.42v-.45c0-.22.05-.44.14-.65Z"/>
          <polygon class="cls-8" points="53.16 95.52 62.26 95.52 61.91 97.58 52.23 97.58 53.16 95.52"/>
          <path class="cls-21" d="m78.06,96.42h-38.85c-.8-.01-1.46-.63-1.54-1.42l-2.46-28.08c-.07-.71.44-1.34,1.15-1.41.05,0,.09,0,.14,0h38.86c.8.01,1.46.62,1.54,1.42l2.46,28.08c.07.71-.44,1.34-1.15,1.41-.05,0-.1,0-.14,0Z"/>
          <path class="cls-23" d="m79.09,91.97l.27,3.04c.07.71-.44,1.34-1.15,1.41-.05,0-.09,0-.14,0h-38.86c-.8-.01-1.46-.62-1.54-1.42l-.27-3.04h41.7Z"/>
          <path class="cls-8" d="m79.09,91.97l.27,3.04c.07.71-.44,1.34-1.15,1.41-.05,0-.09,0-.14,0h-38.86c-.8-.01-1.46-.62-1.54-1.42l-.27-3.04"/>
          <path class="cls-23" d="m38.77,91.11h38.8c.38,0,.7-.3.71-.68,0-.03,0-.06,0-.09l-2.03-23.21c-.05-.43-.41-.76-.84-.77h-38.8c-.38,0-.7.3-.71.68,0,.03,0,.06,0,.09l2.03,23.21c.04.43.4.76.84.77Z"/>
          <path class="cls-5" d="m38.77,91.11h38.8c.38,0,.7-.3.71-.68,0-.03,0-.06,0-.09l-2.03-23.21c-.05-.43-.41-.76-.84-.77h-38.8c-.38,0-.7.3-.71.68,0,.03,0,.06,0,.09l2.03,23.21c.04.43.4.76.84.77Z"/>
          <path class="cls-23" d="m35.64,65.5h.86c-.71,0-1.29.57-1.3,1.28,0,.05,0,.09,0,.14l2.45,28.08c.08.8.74,1.41,1.54,1.42h-.86c-.8-.02-1.46-.63-1.54-1.42l-2.46-28.08c-.07-.71.44-1.34,1.15-1.41.05,0,.1,0,.14,0Z"/>
          <path class="cls-4" d="m35.64,65.5h.86c-.71,0-1.29.57-1.3,1.28,0,.05,0,.09,0,.14l2.45,28.08c.08.8.74,1.41,1.54,1.42h-.86c-.8-.02-1.46-.63-1.54-1.42l-2.46-28.08c-.07-.71.44-1.34,1.15-1.41.05,0,.1,0,.14,0Z"/>
          <path class="cls-23" d="m64.88,70.96c.02,1.11-.87,2.03-1.98,2.05-.02,0-.05,0-.07,0h-11.69c-1.26-.02-2.31-.99-2.44-2.25v-.2c-.01-1.12.88-2.03,1.99-2.05.02,0,.04,0,.06,0h11.69c1.26.02,2.31.99,2.44,2.25,0,.07,0,.13,0,.2Z"/>
          <g class="cls-14">
            <path class="cls-2" d="m64.4,70.96c.02,1.11-.87,2.03-1.99,2.05-.02,0-.04,0-.07,0h-11.2c-1.26-.02-2.31-.99-2.44-2.25v-.2c-.01-1.12.88-2.03,1.99-2.05.02,0,.04,0,.06,0h11.2c1.26.02,2.31.99,2.44,2.25,0,.07,0,.13,0,.2Z"/>
          </g>
          <path class="cls-23" d="m49.99,81.71l.02.28h-.22l-.02-.28c-.23,0-.46-.08-.65-.22l.09-.26c.15.11.33.18.52.19l-.05-.51c-.29-.07-.59-.16-.62-.51-.02-.26.14-.48.53-.52l-.02-.28h.22l.02.28c.18,0,.36.06.52.15l-.08.26c-.13-.07-.28-.12-.43-.14l.05.51c.29.07.6.16.63.51.04.26-.13.49-.52.53Zm-.3-1.08l-.04-.45c-.18.03-.25.12-.23.23s.12.17.27.22h0Zm.52.59c-.01-.12-.13-.18-.28-.22l.04.45c.18-.04.25-.13.24-.23h0Z"/>
          <path class="cls-23" d="m52.01,81.15c.03.31-.17.57-.65.57-.24,0-.48-.07-.68-.2l.12-.25c.16.11.34.17.54.17.23,0,.36-.1.35-.27s-.13-.27-.5-.27h-.43v-.96h1.03l.03.28h-.76v.41h.17c.53,0,.76.23.78.54Z"/>
          <path class="cls-23" d="m52.17,80.81c-.05-.58.24-.91.66-.91s.77.33.82.91-.24.91-.66.91-.77-.33-.82-.91Zm1.14,0c-.04-.43-.22-.62-.46-.62s-.39.2-.35.62.22.62.46.62.39-.2.35-.62Z"/>
          <path class="cls-23" d="m53.88,80.81c-.05-.58.24-.91.66-.91s.77.33.82.91-.24.91-.66.91-.78-.33-.82-.91Zm1.14,0c-.04-.43-.22-.62-.46-.62s-.39.2-.35.62.22.62.46.62.38-.2.34-.62h.01Z"/>
          <path class="cls-23" d="m55.56,80.81c-.05-.58.24-.91.65-.91s.77.33.82.91-.24.91-.66.91-.75-.33-.8-.91Zm1.14,0c-.04-.43-.22-.62-.46-.62s-.39.2-.35.62.22.62.46.62.39-.2.35-.62Z"/>
          <path class="cls-23" d="m57.69,81.5c0,.07,0,.15-.04.22l-.1.35h-.22l.07-.38c-.08-.03-.13-.1-.14-.19-.02-.1.04-.19.14-.21.01,0,.03,0,.04,0,.12,0,.22.08.23.2,0,0,0,.01,0,.02Z"/>
          <path class="cls-23" d="m57.81,80.81c-.05-.58.24-.91.66-.91s.77.33.82.91-.24.91-.66.91-.77-.33-.82-.91Zm1.14,0c-.04-.43-.22-.62-.46-.62s-.39.2-.35.62.22.62.46.62.39-.2.35-.62Z"/>
          <path class="cls-23" d="m59.51,80.81c-.05-.58.24-.91.66-.91s.77.33.82.91-.24.91-.66.91-.77-.33-.82-.91Zm1.14,0c-.04-.43-.22-.62-.46-.62s-.39.2-.35.62.22.62.46.62.39-.2.35-.62Z"/>
          <path class="cls-23" d="m62.03,80.93l-.09-1h.33l.09.98c.03.36.22.52.49.52s.43-.16.4-.52l-.09-.98h.32l.09,1c.05.51-.22.79-.7.79-.43.03-.81-.3-.84-.73,0-.02,0-.04,0-.06Z"/>
          <path class="cls-23" d="m63.93,81.51l.09-.26c.17.13.38.19.6.2.28,0,.38-.1.37-.23-.03-.38-1.06-.13-1.12-.79-.03-.28.18-.52.66-.52.21,0,.42.05.6.15l-.08.26c-.15-.09-.32-.14-.5-.14-.27,0-.37.11-.36.24.03.38,1.06.13,1.11.78.03.28-.18.52-.67.52-.25,0-.5-.07-.71-.21Z"/>
          <path class="cls-23" d="m65.53,79.93h.77c.53-.04.99.35,1.04.88.05.53-.31.88-.89.88h-.77l-.15-1.77Zm.89,1.49c.29.04.56-.17.6-.46,0-.05,0-.1,0-.14-.02-.36-.33-.63-.68-.61,0,0-.01,0-.02,0h-.43l.11,1.21h.43Z"/>
          <path class="cls-23" d="m67.56,81.5c-.02-.1.05-.19.15-.21.01,0,.03,0,.04,0,.12,0,.22.1.22.22.02.1-.05.2-.15.21-.01,0-.02,0-.03,0-.12,0-.21-.1-.22-.22Z"/>
          <g class="cls-17">
            <path class="cls-2" d="m53.66,69.95l-.37,1.54h-.3l-.48-1.14-.29,1.14h-.31l-.65-1.54h.3l.48,1.17.3-1.17h.26l.49,1.18.29-1.18h.27Z"/>
            <path class="cls-2" d="m53.85,69.96c0-.08.05-.16.13-.17,0,0,.02,0,.03,0,.09,0,.18.07.19.16.01.08-.05.16-.13.17,0,0-.02,0-.03,0-.1,0-.18-.07-.19-.17Zm.07.36h.27l.1,1.17h-.28l-.1-1.17Z"/>
            <path class="cls-2" d="m55.36,71.43c-.07.05-.17.08-.26.08-.22.02-.41-.15-.43-.36,0-.01,0-.02,0-.03l-.05-.57h-.19l-.02-.22h.19l-.02-.27h.28l.02.27h.31l.02.22h-.31l.05.56c0,.09.07.17.16.18,0,0,.01,0,.02,0,.05,0,.11-.01.15-.05l.09.2Z"/>
            <path class="cls-2" d="m56.69,70.82l.06.67h-.28l-.06-.65c-.02-.22-.13-.31-.31-.31s-.32.12-.3.35l.05.59h-.26l-.14-1.63h.28l.05.59c.1-.1.24-.16.38-.15.28-.01.51.2.53.48,0,.01,0,.03,0,.04Z"/>
            <path class="cls-2" d="m58.11,69.86l.14,1.63h-.26v-.15c-.1.11-.24.18-.39.17-.34,0-.62-.26-.65-.6-.02-.3.2-.57.51-.59.16-.01.31.05.43.16l-.05-.6h.27Zm-.18,1.03c0-.21-.18-.37-.38-.37-.17,0-.32.13-.32.3,0,.02,0,.05,0,.07,0,.21.18.37.38.37.17,0,.31-.12.32-.29,0-.03,0-.05,0-.08Z"/>
            <path class="cls-2" d="m59.19,70.3l.02.26s-.04,0-.06,0c-.22,0-.33.12-.31.36l.05.57h-.28l-.1-1.17h.26l.02.17c.09-.14.25-.22.41-.19Z"/>
            <path class="cls-2" d="m60.44,70.8l.06.69h-.26v-.14c-.09.11-.23.17-.37.16-.22.02-.43-.13-.47-.35-.02-.2.1-.35.46-.35h.31v-.02c-.02-.16-.12-.26-.32-.26-.12,0-.25.04-.34.12l-.13-.2c.14-.1.31-.15.49-.14.28-.04.53.16.57.44,0,.02,0,.04,0,.06Zm-.25.32v-.14h-.3c-.19,0-.23.07-.22.16s.1.16.24.16c.12,0,.24-.07.28-.18h0Z"/>
            <path class="cls-2" d="m62.57,70.32l-.33,1.17h-.26l-.37-.81-.24.81h-.26l-.53-1.17h.26l.38.86.25-.86h.23l.39.87.24-.87h.25Z"/>
          </g>
          <path class="cls-23" d="m50.37,78.01l.05.62h-.33l-.06-.62-.79-1.15h.35l.59.86.45-.86h.32l-.59,1.14Z"/>
          <path class="cls-23" d="m50.97,77.95c-.04-.33.19-.64.53-.68.04,0,.08,0,.12,0,.4-.02.75.29.78.69.04.33-.19.64-.52.69-.04,0-.08,0-.12,0-.4.02-.75-.29-.78-.69Zm1.12,0c0-.23-.2-.42-.43-.42-.2,0-.36.15-.37.34,0,.03,0,.05,0,.08,0,.24.19.43.43.43.2,0,.36-.14.37-.34,0-.03,0-.06,0-.09Z"/>
          <path class="cls-23" d="m53.95,77.28l.12,1.35h-.3l-.02-.17c-.1.13-.26.2-.42.19-.32.02-.6-.22-.63-.54,0-.02,0-.03,0-.05l-.07-.77h.32l.06.73c.02.25.15.36.35.36s.36-.14.33-.4l-.06-.68h.32Z"/>
          <path class="cls-23" d="m55.15,77.27l.03.3s-.05,0-.07,0c-.24,0-.38.14-.35.42l.06.65h-.32l-.12-1.35h.3l.02.2c.1-.15.28-.24.46-.22Z"/>
          <path class="cls-23" d="m56.12,76.86h.33l.15,1.76h-.33l-.15-1.76Z"/>
          <path class="cls-23" d="m58.3,77.86l.07.77h-.32l-.06-.73c-.02-.24-.15-.35-.35-.35s-.36.14-.34.41l.06.68h-.32l-.12-1.35h.3l.02.17c.11-.13.28-.2.45-.19.32-.02.6.23.61.55,0,.01,0,.03,0,.04Z"/>
          <path class="cls-23" d="m58.61,77.95c-.04-.34.2-.65.54-.69.04,0,.09,0,.13,0,.24-.01.47.11.6.31l-.23.14c-.08-.12-.21-.18-.35-.18-.2-.01-.37.14-.38.34,0,.03,0,.06,0,.08,0,.24.19.43.43.43,0,0,.01,0,.02,0,.13,0,.26-.07.32-.19l.25.14c-.1.21-.32.33-.55.31-.41.02-.76-.29-.79-.7Z"/>
          <path class="cls-23" d="m60.06,77.95c-.04-.34.2-.64.53-.69.04,0,.08,0,.13,0,.4-.01.74.29.78.69.04.34-.19.64-.53.69-.04,0-.09,0-.13,0-.4.01-.74-.29-.78-.69Zm1.12,0c0-.23-.2-.42-.43-.42-.19,0-.36.14-.37.34,0,.03,0,.06,0,.08,0,.24.19.43.43.43.19,0,.36-.14.37-.33,0-.03,0-.06,0-.1Z"/>
          <path class="cls-23" d="m64.04,77.86l.07.77h-.32l-.06-.73c-.02-.24-.14-.35-.33-.35s-.34.14-.31.4l.06.68h-.32l-.06-.73c-.02-.24-.14-.35-.34-.35s-.34.14-.31.4l.06.68h-.32l-.12-1.35h.31l.02.17c.1-.13.26-.2.43-.19.19,0,.36.08.47.23.21-.26.6-.3.86-.09.14.11.22.28.23.45h-.02Z"/>
          <path class="cls-23" d="m65.73,78.05h-1.06c.06.2.25.34.46.32.13,0,.26-.05.35-.15l.19.19c-.13.15-.32.23-.52.22-.41.03-.77-.28-.8-.69-.05-.33.18-.64.51-.68.04,0,.08,0,.12,0,.4,0,.72.3.74.7,0,.03,0,.07,0,.1Zm-1.08-.22h.76c-.04-.19-.21-.33-.41-.33-.18-.01-.34.13-.35.31,0,0,0,.01,0,.02h0Z"/>
          <g class="cls-14">
            <polygon class="cls-2" points="52.6 66.36 51.11 66.36 45.85 91.11 47.34 91.11 52.6 66.36"/>
            <polygon class="cls-2" points="44.34 91.11 49.6 66.36 43.99 66.36 38.73 91.11 44.34 91.11"/>
          </g>
          <path class="cls-7" d="m51.89,104.84v.41c0,.22.18.4.4.4h13.28c.21,0,.38-.17.38-.39v-.43c0-.21-.17-.39-.38-.39h-3.99s-.1,0-.15-.02h-9.14c-.22,0-.4.18-.4.4Z"/>
          <path class="cls-11" d="m49.16,104.44h12.28c-.33-.07-.57-.36-.58-.7h-11.38l-.31.7Z"/>
          <polygon class="cls-2" points="64.54 73.73 62.6 73.73 63.27 72.02 64.54 73.73"/>
          <polygon class="cls-2" points="64.03 74.9 63.58 74.9 63.17 72.58 63.62 72.58 64.03 74.9"/>
          <path class="cls-21" d="m49.12,104.79v.45c0,.23.2.42.43.42h16.03c.21,0,.39-.17.39-.39v-.43c0-.21-.17-.39-.39-.39h-4c-.4,0-.73-.33-.73-.73,0-.04,0-.09.01-.13l1.4-8.08h-9.11l-3.9,8.63c-.09.2-.14.42-.14.64Z"/>
          <path class="cls-7" d="m65.96,104.84v.43c0,.21-.17.39-.38.39,0,0,0,0,0,0h-16.03c-.23,0-.42-.19-.43-.42v-.45c0-.12.01-.24.04-.35.02-.1.06-.2.1-.29l3.91-8.63h9.11l-1.4,8.08s-.01.09-.01.14c0,.34.25.63.58.7.05.01.1.02.15.02h3.99c.21,0,.39.17.39.38,0,0,0,0,0,0Z"/>
          <path class="cls-21" d="m48.74,104.15l3.9-8.63h.51l-3.9,8.63c-.09.2-.14.42-.14.65v.45c0,.23.2.42.43.42h-.52c-.23,0-.42-.19-.43-.42v-.45c0-.22.05-.44.14-.65Z"/>
          <polygon class="cls-8" points="53.16 95.52 62.26 95.52 61.91 97.58 52.23 97.58 53.16 95.52"/>
          <path class="cls-21" d="m78.06,96.42h-38.85c-.8-.01-1.46-.63-1.54-1.42l-2.46-28.08c-.07-.71.44-1.34,1.15-1.41.05,0,.09,0,.14,0h38.86c.8.01,1.46.62,1.54,1.42l2.46,28.08c.07.71-.44,1.34-1.15,1.41-.05,0-.1,0-.14,0Z"/>
          <path class="cls-23" d="m79.09,91.97l.27,3.04c.07.71-.44,1.34-1.15,1.41-.05,0-.09,0-.14,0h-38.86c-.8-.01-1.46-.62-1.54-1.42l-.27-3.04h41.7Z"/>
          <path class="cls-8" d="m79.09,91.97l.27,3.04c.07.71-.44,1.34-1.15,1.41-.05,0-.09,0-.14,0h-38.86c-.8-.01-1.46-.62-1.54-1.42l-.27-3.04"/>
          <path class="cls-23" d="m38.77,91.11h38.8c.38,0,.7-.3.71-.68,0-.03,0-.06,0-.09l-2.03-23.21c-.05-.43-.41-.76-.84-.77h-38.8c-.38,0-.7.3-.71.68,0,.03,0,.06,0,.09l2.03,23.21c.04.43.4.76.84.77Z"/>
          <path class="cls-5" d="m38.77,91.11h38.8c.38,0,.7-.3.71-.68,0-.03,0-.06,0-.09l-2.03-23.21c-.05-.43-.41-.76-.84-.77h-38.8c-.38,0-.7.3-.71.68,0,.03,0,.06,0,.09l2.03,23.21c.04.43.4.76.84.77Z"/>
          <path class="cls-23" d="m35.64,65.5h.86c-.71,0-1.29.57-1.3,1.28,0,.05,0,.09,0,.14l2.45,28.08c.08.8.74,1.41,1.54,1.42h-.86c-.8-.02-1.46-.63-1.54-1.42l-2.46-28.08c-.07-.71.44-1.34,1.15-1.41.05,0,.1,0,.14,0Z"/>
          <path class="cls-4" d="m35.64,65.5h.86c-.71,0-1.29.57-1.3,1.28,0,.05,0,.09,0,.14l2.45,28.08c.08.8.74,1.41,1.54,1.42h-.86c-.8-.02-1.46-.63-1.54-1.42l-2.46-28.08c-.07-.71.44-1.34,1.15-1.41.05,0,.1,0,.14,0Z"/>
          <path class="cls-23" d="m64.88,70.96c.02,1.11-.87,2.03-1.98,2.05-.02,0-.05,0-.07,0h-11.69c-1.26-.02-2.31-.99-2.44-2.25v-.2c-.01-1.12.88-2.03,1.99-2.05.02,0,.04,0,.06,0h11.69c1.26.02,2.31.99,2.44,2.25,0,.07,0,.13,0,.2Z"/>
          <g class="cls-14">
            <path class="cls-2" d="m64.4,70.96c.02,1.11-.87,2.03-1.99,2.05-.02,0-.04,0-.07,0h-11.2c-1.26-.02-2.31-.99-2.44-2.25v-.2c-.01-1.12.88-2.03,1.99-2.05.02,0,.04,0,.06,0h11.2c1.26.02,2.31.99,2.44,2.25,0,.07,0,.13,0,.2Z"/>
          </g>
          <path class="cls-23" d="m49.99,81.71l.02.28h-.22l-.02-.28c-.23,0-.46-.08-.65-.22l.09-.26c.15.11.33.18.52.19l-.05-.51c-.29-.07-.59-.16-.62-.51-.02-.26.14-.48.53-.52l-.02-.28h.22l.02.28c.18,0,.36.06.52.15l-.08.26c-.13-.07-.28-.12-.43-.14l.05.51c.29.07.6.16.63.51.04.26-.13.49-.52.53Zm-.3-1.08l-.04-.45c-.18.03-.25.12-.23.23s.12.17.27.22h0Zm.52.59c-.01-.12-.13-.18-.28-.22l.04.45c.18-.04.25-.13.24-.23h0Z"/>
          <path class="cls-23" d="m52.01,81.15c.03.31-.17.57-.65.57-.24,0-.48-.07-.68-.2l.12-.25c.16.11.34.17.54.17.23,0,.36-.1.35-.27s-.13-.27-.5-.27h-.43v-.96h1.03l.03.28h-.76v.41h.17c.53,0,.76.23.78.54Z"/>
          <path class="cls-23" d="m52.17,80.81c-.05-.58.24-.91.66-.91s.77.33.82.91-.24.91-.66.91-.77-.33-.82-.91Zm1.14,0c-.04-.43-.22-.62-.46-.62s-.39.2-.35.62.22.62.46.62.39-.2.35-.62Z"/>
          <path class="cls-23" d="m53.88,80.81c-.05-.58.24-.91.66-.91s.77.33.82.91-.24.91-.66.91-.78-.33-.82-.91Zm1.14,0c-.04-.43-.22-.62-.46-.62s-.39.2-.35.62.22.62.46.62.38-.2.34-.62h.01Z"/>
          <path class="cls-23" d="m55.56,80.81c-.05-.58.24-.91.65-.91s.77.33.82.91-.24.91-.66.91-.75-.33-.8-.91Zm1.14,0c-.04-.43-.22-.62-.46-.62s-.39.2-.35.62.22.62.46.62.39-.2.35-.62Z"/>
          <path class="cls-23" d="m57.69,81.5c0,.07,0,.15-.04.22l-.1.35h-.22l.07-.38c-.08-.03-.13-.1-.14-.19-.02-.1.04-.19.14-.21.01,0,.03,0,.04,0,.12,0,.22.08.23.2,0,0,0,.01,0,.02Z"/>
          <path class="cls-23" d="m57.81,80.81c-.05-.58.24-.91.66-.91s.77.33.82.91-.24.91-.66.91-.77-.33-.82-.91Zm1.14,0c-.04-.43-.22-.62-.46-.62s-.39.2-.35.62.22.62.46.62.39-.2.35-.62Z"/>
          <path class="cls-23" d="m59.51,80.81c-.05-.58.24-.91.66-.91s.77.33.82.91-.24.91-.66.91-.77-.33-.82-.91Zm1.14,0c-.04-.43-.22-.62-.46-.62s-.39.2-.35.62.22.62.46.62.39-.2.35-.62Z"/>
          <path class="cls-23" d="m62.03,80.93l-.09-1h.33l.09.98c.03.36.22.52.49.52s.43-.16.4-.52l-.09-.98h.32l.09,1c.05.51-.22.79-.7.79-.43.03-.81-.3-.84-.73,0-.02,0-.04,0-.06Z"/>
          <path class="cls-23" d="m63.93,81.51l.09-.26c.17.13.38.19.6.2.28,0,.38-.1.37-.23-.03-.38-1.06-.13-1.12-.79-.03-.28.18-.52.66-.52.21,0,.42.05.6.15l-.08.26c-.15-.09-.32-.14-.5-.14-.27,0-.37.11-.36.24.03.38,1.06.13,1.11.78.03.28-.18.52-.67.52-.25,0-.5-.07-.71-.21Z"/>
          <path class="cls-23" d="m65.53,79.93h.77c.53-.04.99.35,1.04.88.05.53-.31.88-.89.88h-.77l-.15-1.77Zm.89,1.49c.29.04.56-.17.6-.46,0-.05,0-.1,0-.14-.02-.36-.33-.63-.68-.61,0,0-.01,0-.02,0h-.43l.11,1.21h.43Z"/>
          <path class="cls-23" d="m67.56,81.5c-.02-.1.05-.19.15-.21.01,0,.03,0,.04,0,.12,0,.22.1.22.22.02.1-.05.2-.15.21-.01,0-.02,0-.03,0-.12,0-.21-.1-.22-.22Z"/>
          <g class="cls-17">
            <path class="cls-2" d="m53.66,69.95l-.37,1.54h-.3l-.48-1.14-.29,1.14h-.31l-.65-1.54h.3l.48,1.17.3-1.17h.26l.49,1.18.29-1.18h.27Z"/>
            <path class="cls-2" d="m53.85,69.96c0-.08.05-.16.13-.17,0,0,.02,0,.03,0,.09,0,.18.07.19.16.01.08-.05.16-.13.17,0,0-.02,0-.03,0-.1,0-.18-.07-.19-.17Zm.07.36h.27l.1,1.17h-.28l-.1-1.17Z"/>
            <path class="cls-2" d="m55.36,71.43c-.07.05-.17.08-.26.08-.22.02-.41-.15-.43-.36,0-.01,0-.02,0-.03l-.05-.57h-.19l-.02-.22h.19l-.02-.27h.28l.02.27h.31l.02.22h-.31l.05.56c0,.09.07.17.16.18,0,0,.01,0,.02,0,.05,0,.11-.01.15-.05l.09.2Z"/>
            <path class="cls-2" d="m56.69,70.82l.06.67h-.28l-.06-.65c-.02-.22-.13-.31-.31-.31s-.32.12-.3.35l.05.59h-.26l-.14-1.63h.28l.05.59c.1-.1.24-.16.38-.15.28-.01.51.2.53.48,0,.01,0,.03,0,.04Z"/>
            <path class="cls-2" d="m58.11,69.86l.14,1.63h-.26v-.15c-.1.11-.24.18-.39.17-.34,0-.62-.26-.65-.6-.02-.3.2-.57.51-.59.16-.01.31.05.43.16l-.05-.6h.27Zm-.18,1.03c0-.21-.18-.37-.38-.37-.17,0-.32.13-.32.3,0,.02,0,.05,0,.07,0,.21.18.37.38.37.17,0,.31-.12.32-.29,0-.03,0-.05,0-.08Z"/>
            <path class="cls-2" d="m59.19,70.3l.02.26s-.04,0-.06,0c-.22,0-.33.12-.31.36l.05.57h-.28l-.1-1.17h.26l.02.17c.09-.14.25-.22.41-.19Z"/>
            <path class="cls-2" d="m60.44,70.8l.06.69h-.26v-.14c-.09.11-.23.17-.37.16-.22.02-.43-.13-.47-.35-.02-.2.1-.35.46-.35h.31v-.02c-.02-.16-.12-.26-.32-.26-.12,0-.25.04-.34.12l-.13-.2c.14-.1.31-.15.49-.14.28-.04.53.16.57.44,0,.02,0,.04,0,.06Zm-.25.32v-.14h-.3c-.19,0-.23.07-.22.16s.1.16.24.16c.12,0,.24-.07.28-.18h0Z"/>
            <path class="cls-2" d="m62.57,70.32l-.33,1.17h-.26l-.37-.81-.24.81h-.26l-.53-1.17h.26l.38.86.25-.86h.23l.39.87.24-.87h.25Z"/>
          </g>
          <path class="cls-23" d="m50.37,78.01l.05.62h-.33l-.06-.62-.79-1.15h.35l.59.86.45-.86h.32l-.59,1.14Z"/>
          <path class="cls-23" d="m50.97,77.95c-.04-.33.19-.64.53-.68.04,0,.08,0,.12,0,.4-.02.75.29.78.69.04.33-.19.64-.52.69-.04,0-.08,0-.12,0-.4.02-.75-.29-.78-.69Zm1.12,0c0-.23-.2-.42-.43-.42-.2,0-.36.15-.37.34,0,.03,0,.05,0,.08,0,.24.19.43.43.43.2,0,.36-.14.37-.34,0-.03,0-.06,0-.09Z"/>
          <path class="cls-23" d="m53.95,77.28l.12,1.35h-.3l-.02-.17c-.1.13-.26.2-.42.19-.32.02-.6-.22-.63-.54,0-.02,0-.03,0-.05l-.07-.77h.32l.06.73c.02.25.15.36.35.36s.36-.14.33-.4l-.06-.68h.32Z"/>
          <path class="cls-23" d="m55.15,77.27l.03.3s-.05,0-.07,0c-.24,0-.38.14-.35.42l.06.65h-.32l-.12-1.35h.3l.02.2c.1-.15.28-.24.46-.22Z"/>
          <path class="cls-23" d="m56.12,76.86h.33l.15,1.76h-.33l-.15-1.76Z"/>
          <path class="cls-23" d="m58.3,77.86l.07.77h-.32l-.06-.73c-.02-.24-.15-.35-.35-.35s-.36.14-.34.41l.06.68h-.32l-.12-1.35h.3l.02.17c.11-.13.28-.2.45-.19.32-.02.6.23.61.55,0,.01,0,.03,0,.04Z"/>
          <path class="cls-23" d="m58.61,77.95c-.04-.34.2-.65.54-.69.04,0,.09,0,.13,0,.24-.01.47.11.6.31l-.23.14c-.08-.12-.21-.18-.35-.18-.2-.01-.37.14-.38.34,0,.03,0,.06,0,.08,0,.24.19.43.43.43,0,0,.01,0,.02,0,.13,0,.26-.07.32-.19l.25.14c-.1.21-.32.33-.55.31-.41.02-.76-.29-.79-.7Z"/>
          <path class="cls-23" d="m60.06,77.95c-.04-.34.2-.64.53-.69.04,0,.08,0,.13,0,.4-.01.74.29.78.69.04.34-.19.64-.53.69-.04,0-.09,0-.13,0-.4.01-.74-.29-.78-.69Zm1.12,0c0-.23-.2-.42-.43-.42-.19,0-.36.14-.37.34,0,.03,0,.06,0,.08,0,.24.19.43.43.43.19,0,.36-.14.37-.33,0-.03,0-.06,0-.1Z"/>
          <path class="cls-23" d="m64.04,77.86l.07.77h-.32l-.06-.73c-.02-.24-.14-.35-.33-.35s-.34.14-.31.4l.06.68h-.32l-.06-.73c-.02-.24-.14-.35-.34-.35s-.34.14-.31.4l.06.68h-.32l-.12-1.35h.31l.02.17c.1-.13.26-.2.43-.19.19,0,.36.08.47.23.21-.26.6-.3.86-.09.14.11.22.28.23.45h-.02Z"/>
          <path class="cls-23" d="m65.73,78.05h-1.06c.06.2.25.34.46.32.13,0,.26-.05.35-.15l.19.19c-.13.15-.32.23-.52.22-.41.03-.77-.28-.8-.69-.05-.33.18-.64.51-.68.04,0,.08,0,.12,0,.4,0,.72.3.74.7,0,.03,0,.07,0,.1Zm-1.08-.22h.76c-.04-.19-.21-.33-.41-.33-.18-.01-.34.13-.35.31,0,0,0,.01,0,.02h0Z"/>
          <g class="cls-14">
            <polygon class="cls-2" points="52.6 66.36 51.11 66.36 45.85 91.11 47.34 91.11 52.6 66.36"/>
            <polygon class="cls-2" points="44.34 91.11 49.6 66.36 43.99 66.36 38.73 91.11 44.34 91.11"/>
          </g>
          <path class="cls-7" d="m51.89,104.84v.41c0,.22.18.4.4.4h13.28c.21,0,.38-.17.38-.39v-.43c0-.21-.17-.39-.38-.39h-3.99s-.1,0-.15-.02h-9.14c-.22,0-.4.18-.4.4Z"/>
          <path class="cls-11" d="m49.16,104.44h12.28c-.33-.07-.57-.36-.58-.7h-11.38l-.31.7Z"/>
          <polygon class="cls-2" points="64.54 73.73 62.6 73.73 63.27 72.02 64.54 73.73"/>
          <polygon class="cls-2" points="64.03 74.9 63.58 74.9 63.17 72.58 63.62 72.58 64.03 74.9"/>
        </g>
        <g id="freepik--Plant--inject-1">
          <path class="cls-21" d="m45.36,97.7l-.63.06c-.09,0-.09-.14,0-.15l.63-.06c.09,0,.09.14,0,.15Z"/>
          <path class="cls-21" d="m45.4,99.74l.37.28c.07.05,0,.18-.07.12l-.37-.28c-.07-.06,0-.18.07-.13h0Z"/>
          <path class="cls-21" d="m46.32,98.96l.61.12c.09.02.05.16-.04.14l-.61-.12c-.09-.02-.05-.16.04-.14Z"/>
          <path class="cls-21" d="m45.79,98.27l-.3-.45c-.05-.08.07-.15.12-.07l.3.45c.05.08-.07.15-.12.07Z"/>
          <path class="cls-21" d="m44.76,98.9l.49.11c.09.02.05.16-.04.14l-.49-.11c-.09-.02-.05-.16.04-.14Z"/>
          <path class="cls-21" d="m40.54,99.5l-.61.07c-.09.01-.09-.13,0-.14l.61-.07c.09-.01.09.13,0,.14Z"/>
          <path class="cls-21" d="m45.11,95.97l-.46.22c-.08.04-.16-.09-.07-.12l.46-.22c.08-.04.16.09.07.12Z"/>
          <path class="cls-21" d="m43.91,94.44c-.08.2-.15.4-.23.6-.03.09-.17.05-.14-.04l.23-.6c.03-.09.17-.05.14.04Z"/>
          <path class="cls-21" d="m40.48,98.85h-.55s-.07-.04-.06-.08c0-.03.03-.05.06-.06h.55s.07.04.06.08c0,.03-.03.05-.06.06Z"/>
          <path class="cls-21" d="m40.46,97.42l-.46-.1c-.09-.02-.05-.16.04-.14l.46.1c.09.02.05.16-.04.14h0Z"/>
          <path class="cls-21" d="m42.24,94.79l-.14-.48s.01-.08.05-.09c.04-.01.08.01.09.05l.14.48s-.02.08-.06.08c-.03,0-.06-.01-.08-.04Z"/>
          <path class="cls-23" d="m44.32,100.63s3.31-1.38,2.31-2.56c-.95-1.12-1.37,1.48-2.31,1.82s0,.74,0,.74Z"/>
          <path class="cls-3" d="m44.32,100.63s3.31-1.38,2.31-2.56c-.95-1.12-1.37,1.48-2.31,1.82s0,.74,0,.74Z"/>
          <path class="cls-23" d="m44.45,101.34s2.25-6.85-1.77-6.75-1.82,7.15-1.82,7.15l3.59-.41Z"/>
          <path class="cls-4" d="m44.45,101.34s2.25-6.85-1.77-6.75-1.82,7.15-1.82,7.15l3.59-.41Z"/>
          <path class="cls-9" d="m40.86,101.75s-.68-2.18-.59-4.13c.16,3.17,2.92,3.01,2.92,3.01l.19.84-2.52.28Z"/>
          <path class="cls-21" d="m46.43,100.37l-.51,4.18c-.07.59-.58,1.04-1.18,1.04h-3.4c-.6,0-1.1-.45-1.18-1.04l-.51-4.17h6.78Z"/>
          <g class="cls-17">
            <path class="cls-2" d="m44.04,100.25c.27-1.69.23-4.61-1.95-4.91-.15-.02-.09-.25.06-.23,2.33.32,2.41,3.4,2.12,5.21-.02.15-.26.09-.23-.06Z"/>
          </g>
          <g class="cls-16">
            <path class="cls-2" d="m43.17,100.1c.12-1.37-.15-2.92-1.08-3.97-.1-.12.07-.29.17-.17.97,1.1,1.28,2.71,1.15,4.14-.02.15-.26.15-.24,0h0Z"/>
          </g>
          <g class="cls-17">
            <path class="cls-2" d="m42.22,100.13c-.28-1.14-.48-2.3-.65-3.46-.02-.15.22-.22.23-.06.17,1.16.37,2.32.65,3.46.04.15-.2.22-.23.06Z"/>
          </g>
          <g class="cls-16">
            <path class="cls-2" d="m41.14,100.13c-.38-1.05-.53-2.17-.46-3.28,0-.15.25-.16.24,0-.08,1.09.07,2.19.45,3.21.05.15-.18.22-.23.06Z"/>
          </g>
          <g class="cls-18">
            <path class="cls-2" d="m45.02,99.82c.5-.29,1.16-.74,1.29-1.34.03-.15.27-.09.23.06-.15.66-.86,1.16-1.41,1.48-.06.03-.13.01-.17-.05s-.01-.13.05-.17h0Z"/>
          </g>
          <g class="cls-17">
            <path class="cls-2" d="m46.12,98.5l-.56.78c-.09.12-.3,0-.22-.12l.56-.78c.09-.12.3,0,.22.12h0Z"/>
          </g>
          <path class="cls-23" d="m41.37,95.22s.51-.22.52-.37c.02-.23-.4-.71-.63-.69-.19.03-.36.69-.36.69,0,0-.17-.66-.36-.69-.25-.03-.71.52-.67.78.02.15.5.32.5.32,0,0-.53,0-.6.14-.1.19.14.76.35.8.17.03.48-.48.48-.48,0,0-.29.47-.2.61s.6.2.72.06-.1-.67-.1-.67c0,0,.28.48.43.48.22,0,.61-.45.56-.66-.03-.18-.65-.32-.65-.32Z"/>
          <path class="cls-5" d="m41.37,95.22s.51-.22.52-.37c.02-.23-.4-.71-.63-.69-.19.03-.36.69-.36.69,0,0-.17-.66-.36-.69-.25-.03-.71.52-.67.78.02.15.5.32.5.32,0,0-.53,0-.6.14-.1.19.14.76.35.8.17.03.48-.48.48-.48,0,0-.29.47-.2.61s.6.2.72.06-.1-.67-.1-.67c0,0,.28.48.43.48.22,0,.61-.45.56-.66-.03-.18-.65-.32-.65-.32Z"/>
          <path class="cls-21" d="m45.23,98.48l-.49-.04c-.09,0-.09-.15,0-.14l.49.04c.09,0,.09.15,0,.15Z"/>
          <path class="cls-21" d="m45.3,96.81l-.47.11c-.09.02-.13-.12-.04-.14l.47-.11c.09-.02.13.12.04.14Z"/>
          <path class="cls-21" d="m44.67,95.07l-.4.43c-.06.07-.17-.03-.1-.1l.4-.43c.06-.07.17.03.1.1Z"/>
          <path class="cls-21" d="m40.69,100.12l-.66.16c-.09.02-.13-.12-.04-.14l.65-.16s.08.02.08.06c0,.03-.01.06-.04.08h.01Z"/>
          <path class="cls-21" d="m40.38,98.13l-.47-.12s-.05-.06-.04-.1c.01-.03.04-.05.08-.04l.47.12c.09.02.05.16-.04.14Z"/>
          <path class="cls-21" d="m40.46,96.85l-.46-.1c-.09-.02-.05-.16.04-.14l.46.1c.09.02.05.16-.04.14Z"/>
          <path class="cls-21" d="m42.9,94.77v-.43s.04-.07.08-.06c.03,0,.05.03.06.06v.43s-.04.07-.08.06c-.03,0-.05-.03-.06-.06Z"/>
          <path class="cls-21" d="m44.69,99.51l.41.11s.06.05.05.09c-.01.04-.05.06-.09.05l-.41-.11s-.05-.06-.04-.1c.01-.03.04-.05.08-.04Z"/>
          <path class="cls-21" d="m44.59,100.01l.42.1c.09.02.05.16-.04.14l-.42-.1c-.09-.02-.05-.16.04-.14Z"/>
          <path class="cls-21" d="m45.89,99.4l.5.28c.08.05,0,.17-.07.13l-.5-.28c-.08-.05,0-.17.07-.12Z"/>
          <path class="cls-21" d="m46.44,98.41l.53-.29s.08,0,.1.03,0,.08-.03.1l-.53.29c-.08.05-.15-.08-.07-.12h0Z"/>
          <path class="cls-21" d="m46.16,97.98c.04-.2.08-.4.12-.6.02-.09.16-.05.14.04-.04.2-.08.4-.12.6-.02.09-.16.05-.14-.04Z"/>
          <path class="cls-21" d="m45.49,98.57l-.27-.28c-.06-.07.04-.17.1-.1l.27.28c.06.07-.04.17-.1.1Z"/>
        </g>
        <g id="freepik--Character--inject-1">
          <path class="cls-21" d="m91.01,78.18h.65c.06,0,.12-.06.12-.12v-.62c-.02-.06-.07-.11-.13-.11h-.46c-.05,0-.1.03-.12.08l-.17.62c-.02.06.02.13.08.14,0,0,.02,0,.03,0Z"/>
          <path class="cls-21" d="m90.13,78.19h.65c.06,0,.12-.06.12-.12v-.62c0-.06-.06-.11-.12-.11,0,0,0,0,0,0h-.46c-.05,0-.1.03-.12.08l-.17.62c-.02.06.02.12.08.14,0,0,.01,0,.02,0Z"/>
          <path class="cls-21" d="m89.25,78.2h.65c.06,0,.12-.06.12-.12,0,0,0,0,0,0v-.61c-.01-.06-.07-.11-.13-.11,0,0,0,0,0,0h-.46c-.05,0-.1.03-.12.08l-.17.62c-.02.06.02.12.07.14.01,0,.02,0,.03,0Z"/>
          <path class="cls-21" d="m88.37,78.21h.65c.06,0,.12-.05.12-.11v-.61c-.01-.06-.07-.11-.13-.11,0,0,0,0,0,0h-.46c-.05,0-.1.03-.12.08l-.17.62c-.01.06.03.12.09.13,0,0,.02,0,.02,0Z"/>
          <path class="cls-21" d="m87.49,78.23h.65c.06,0,.12-.05.12-.11v-.61c0-.06-.06-.11-.12-.11h-.46c-.05,0-.1.03-.12.08l-.17.62c-.01.06.02.12.09.13,0,0,.01,0,.02,0Z"/>
          <path class="cls-21" d="m86.61,78.24h.65c.06,0,.12-.05.12-.11v-.62c0-.06-.06-.11-.12-.11h-.46c-.05,0-.1.03-.12.08l-.17.62c-.01.06.02.12.08.13,0,0,.01,0,.02,0Z"/>
          <path class="cls-21" d="m85.73,78.25h.65c.06,0,.12-.06.12-.12,0,0,0,0,0,0v-.62c0-.06-.06-.11-.12-.11,0,0,0,0,0,0h-.46c-.05,0-.1.03-.12.08l-.17.62c-.02.06.02.12.08.14,0,0,.01,0,.02,0Z"/>
          <path class="cls-21" d="m84.84,78.27h.63c.06,0,.12-.06.12-.12,0,0,0,0,0,0v-.62c0-.06-.06-.11-.12-.11h-.46c-.05,0-.1.03-.12.08l-.17.62c-.02.06.02.12.08.14.01,0,.02,0,.03,0Z"/>
          <path class="cls-21" d="m83.98,78.28h.65c.06,0,.12-.05.12-.11h0v-.61c0-.06-.05-.11-.12-.11,0,0,0,0,0,0h-.46c-.05,0-.1.03-.12.08l-.17.62c-.01.06.03.12.09.13,0,0,0,0,.01,0Z"/>
          <path class="cls-21" d="m83.09,78.29h.65c.06,0,.12-.05.12-.11h0v-.61c0-.06-.06-.11-.12-.11,0,0,0,0,0,0h-.46c-.05,0-.1.03-.12.08l-.17.62c-.01.06.03.12.09.13,0,0,0,0,.01,0Z"/>
          <path class="cls-21" d="m82.21,78.31h.65c.06,0,.12-.05.12-.11h0v-.61c0-.06-.06-.11-.12-.11,0,0,0,0,0,0h-.46c-.05,0-.1.04-.12.09l-.17.62c-.01.06.03.12.09.13,0,0,0,0,.01,0Z"/>
          <path class="cls-21" d="m81.33,78.31h.65c.06,0,.12-.06.12-.12v-.62c-.02-.06-.07-.11-.13-.11h-.46c-.05,0-.1.03-.12.08l-.17.62c-.02.06.02.13.08.14,0,0,.02,0,.03,0Z"/>
          <path class="cls-21" d="m80.46,78.33h.65c.06,0,.12-.06.12-.12v-.62c-.01-.06-.07-.11-.13-.11,0,0,0,0,0,0h-.46c-.05,0-.1.03-.12.08l-.17.62c-.02.06.02.12.07.14.01,0,.02,0,.03,0Z"/>
          <path class="cls-21" d="m79.58,78.35h.65c.06,0,.12-.06.12-.12v-.62c0-.06-.06-.11-.12-.11,0,0,0,0,0,0h-.46c-.05,0-.1.03-.12.08l-.17.62c-.02.06.02.12.08.14,0,0,.01,0,.02,0Z"/>
          <path class="cls-21" d="m78.7,78.36h.65c.06,0,.12-.05.12-.11v-.61c0-.06-.06-.11-.12-.11h-.46c-.05,0-.1.03-.12.08l-.17.62c-.01.06.02.12.09.13,0,0,.01,0,.02,0Z"/>
          <path class="cls-21" d="m78.06,78.44c.02.28.26.49.54.48l13.17-.2c.28,0,.51-.21.52-.49,0-.13-.06-.26-.16-.34-.1-.09-.23-.13-.37-.14l-13.18.2s-.1,0-.15.02c-.22.05-.37.25-.38.47Z"/>
          <path class="cls-7" d="m78.06,78.44c.02.28.26.49.54.48l13.17-.2c.28,0,.51-.21.52-.49,0-.13-.06-.26-.16-.34-.1-.09-.23-.13-.37-.14l-13.18.2s-.1,0-.15.02c-.22.05-.37.25-.38.47Z"/>
          <path class="cls-21" d="m78.06,78.44c.02.28.26.49.54.48l4.46-.07c.21-.06.36-.25.36-.47,0-.03,0-.06,0-.09-.02-.1-.08-.19-.15-.25-.04-.03-.07-.06-.11-.08l-.06-.03c-.07-.02-.13-.03-.2-.03l-4.44.07c-.22.05-.38.24-.38.47Z"/>
          <polygon class="cls-25" points="83.72 101.91 82.07 101.59 82.16 97.74 84.21 98.25 83.72 101.91"/>
          <polygon class="cls-11" points="84.37 97.2 82.2 96.64 82.13 99.26 84.05 99.51 84.37 97.2"/>
          <path class="cls-21" d="m92.44,77.8s-10.77,1.81-10.34,6.64c0,0-.22,4.91-.24,13.76l2.82.43s2.89-9.18,2.39-13c4.55-.77,9.34.36,11.2-1.98,1.44-1.84.35-5.96.35-5.96l-6.18.11Z"/>
          <polygon class="cls-21" points="85.14 99.16 81.46 98.65 81.47 97.03 85.29 97.75 85.14 99.16"/>
          <path class="cls-21" d="m82.01,101.5l1.88.31c.07.02.12.08.11.15l-.1,1.77c0,.17-.15.31-.32.3,0,0,0,0-.01,0-.65-.12-.96-.22-1.79-.35-.51-.09-1.68-.29-2.38-.35s-.65-.88-.34-.93c1.36-.22,2.13-.47,2.65-.83.09-.06.2-.09.3-.08Z"/>
          <path class="cls-23" d="m81.18,101.85c.15.02.3.02.45,0,.02,0,.03-.01.03-.03,0-.01,0-.03,0-.04-.05-.05-.48-.43-.69-.38-.05.01-.09.05-.11.1-.03.07-.02.15.02.22.08.08.19.13.3.14Zm.36-.07c-.31,0-.53-.02-.6-.11-.03-.04-.03-.1,0-.14,0-.02.02-.04.05-.05.11-.03.37.15.55.3Z"/>
          <path class="cls-23" d="m81.62,101.85h.02s.02-.02.03-.03c0-.02.11-.5-.04-.68-.04-.05-.1-.08-.16-.08-.07,0-.13.03-.16.1-.06.18.14.56.29.68,0,0,.01,0,.02,0Zm-.14-.71s.06.02.08.05c.07.17.08.36.04.54-.14-.15-.22-.34-.22-.55,0-.02.02-.05.08-.05h.02Z"/>
          <polygon class="cls-25" points="76.7 102.81 75.06 102.43 75.68 98.62 77.6 99.2 76.7 102.81"/>
          <polygon class="cls-11" points="77.87 98.05 75.86 97.4 75.49 99.82 77.3 100.33 77.87 98.05"/>
          <path class="cls-21" d="m89.86,77.69s-.43,1.12-1.26,1.08c-7.09-.37-12.54.02-12.54,4.36-.35,7.6-.8,15.64-.8,15.64l2.66.62s3.31-9.25,3.08-14.67c6.09,1.26,12.75,1.51,14.81-1.55,1.53-2.75.23-5.41.23-5.41l-6.16-.07Z"/>
          <polygon class="cls-21" points="78.23 99.89 74.96 99.07 75.2 97.58 78.54 98.61 78.23 99.89"/>
          <path class="cls-21" d="m75.18,101.51l1.89.33c.07.02.12.09.11.17l-.09,1.95c-.02.22-.17.36-.33.34h0c-.65-.13-.96-.24-1.79-.38-.51-.09-1.9-.38-2.6-.54s-.57-1.05-.25-1.06c1.37-.06,2.26-.32,2.77-.72.08-.07.19-.1.29-.08Z"/>
          <path class="cls-23" d="m74.42,101.95c.13-.07.25-.16.36-.26.02-.01.02-.03,0-.05,0-.01-.02-.02-.03-.02-.06,0-.65-.06-.78.11-.03.04-.04.09-.03.14.01.08.07.14.15.17.12.01.23-.01.33-.08Zm.24-.27c-.24.2-.43.29-.54.26-.05-.02-.08-.06-.09-.11-.01-.02-.01-.05,0-.07.09-.08.4-.1.63-.08h0Z"/>
          <path class="cls-23" d="m74.78,101.69h.02s0-.04,0-.05c-.01-.02-.22-.46-.43-.53-.06-.02-.12,0-.17.03-.06.03-.09.11-.07.17.05.18.44.37.65.38,0,0,0,0,0,0Zm-.53-.49s.06-.02.09-.01c.16.1.28.25.35.42-.2-.04-.38-.15-.5-.31-.01-.02,0-.05.04-.09h.02Z"/>
          <g id="freepik--freepik--Character--inject-578--inject-1">
            <path class="cls-25" d="m93.91,62.4c.33.86.59,1.74-.66,2.2,0,0-1.36,2.07.77,4.8,1.13-1.63,2.27-3.37,3-5.21-.52-.39-.73-1.14-.79-1.92-.03-.46-.44-.81-.9-.77-.16.01-.31.07-.44.16l-.98.74Z"/>
            <path class="cls-21" d="m91.91,58.43c-.1,0-.19.12-.2.27s.07.29.17.29.19-.11.2-.27-.07-.29-.17-.29Z"/>
            <path class="cls-27" d="m91.91,60.07c-.2,0-.39-.08-.52-.23.29-.25.55-.54.76-.86l-.24,1.09Z"/>
            <path class="cls-21" d="m91.98,57.82c.24,0,.45.12.59.31,0,0,0,.01,0,.02.03.04.09.05.13.02.04-.03.05-.09.02-.13-.17-.25-.44-.4-.74-.4-.05,0-.09.04-.1.09,0,0,0,0,0,0,0,.03.02.06.04.08.02,0,.03.02.05.02Z"/>
            <path class="cls-25" d="m97.4,58.43c-.22,1.92-.27,2.74-1.29,3.67-.53.51-1.25.78-1.98.75h-.01c-.22-.01-.44-.05-.65-.12-.18-.06-.35-.14-.51-.24h0c-.57-.36-.96-.94-1.08-1.6-.32-1.75.09-4.6,2.01-5.26,1.37-.49,2.88.23,3.36,1.6.14.39.18.8.13,1.21h0Z"/>
            <path class="cls-21" d="m96.77,55.55c-.69-.29-1.48-.27-2.23-.2s-1.51.22-2.25.13c-.28-.03-.53-.31-.91-.02-.5.38-.25,1.98.93,1.7,1.29-.31.65,1.17.65,1.41.04.19.13.37.25.52.51,1.13,1.35,2.81,1.59,3.34.46.05.92.04,1.38-.06,1.08-1.46,3.4-5.64.58-6.84Z"/>
            <path class="cls-25" d="m93.53,58.55c-.47.11-.65.77-.61,1.19.03.47.4.78.8.49.3-.22.5-.55.56-.92.08-.34-.14-.68-.48-.76-.09-.02-.18-.02-.27,0Z"/>
            <path class="cls-11" d="m94.11,62.85c-.22-.01-.44-.05-.65-.12-.18-.06-.35-.14-.51-.24h0v-.02c.25.07.51.05.74-.04.06-.04.14-.05.22-.03.07.03.1.11.12.19s.05.17.07.26Z"/>
            <path class="cls-21" d="m92.39,64.84c.24-.4.62-.69,1.06-.83.75-.25,3.66-.22,3.94,0,.29.2.5.5.6.83h-5.61Z"/>
            <path class="cls-25" d="m98.23,76.78c-2.3.15-5.43.52-5.58.62.03-.06.48-1.02-.47-1.27l5.53-1.78c.01-1.98.05-6.88.05-7.35v-.47c0-.71.54-1.31,1.25-1.36h.09c.77,0,1.33.65,1.34,1.43.07,5.66.31,10.02-2.22,10.19Z"/>
            <path class="cls-25" d="m92.65,77.4h0s-.04.01-.06,0c-.18-.12-.41-1.27-.41-1.27.95.25.5,1.21.47,1.27Z"/>
            <path class="cls-25" d="m92.65,77.4h-.07l-2.01-.02-1.34.17c-.25.03-.48-.14-.51-.39,0-.02,0-.04,0-.06h0c0-.14.07-.27.18-.35l1.25-.96c.11-.09.26-.11.39-.08l1.63.43c.96.25.51,1.2.48,1.27Z"/>
            <path class="cls-11" d="m97.71,68.31c.29.68.64,1.33,1.06,1.94l1.44-1.02c-.14-.27-.31-.53-.49-.77-.68-.77-1.43-.6-2.01-.15Z"/>
            <path class="cls-23" d="m97.57,66.27c-.67.93-.02,3.62-.02,3.62l3.47-.86s-.03-3.25-.74-3.83c-.8-.68-2.02.09-2.71,1.07Z"/>
            <g class="cls-14">
              <path d="m97.57,66.27c-.67.93-.02,3.62-.02,3.62l3.47-.86s-.03-3.25-.74-3.83c-.8-.68-2.02.09-2.71,1.07Z"/>
            </g>
            <path class="cls-23" d="m93,64.36c1.3-.06,2.59-.03,3.88.1.8.06,1.6.17,2.4.32l.07.02c.62.16,1,.79.85,1.41,0,0,0,0,0,0-1.55,6.17-1.6,8.27-1.55,11.55l-8.55-.23c-.18-1.37-.14-10.52-.03-11.54-.18-1.43,1.89-1.57,2.93-1.63Z"/>
            <path class="cls-21" d="m98.59,77.18l-8.49-.23c-.08,0-.15.04-.15.09l-.1.71c0,.13.06.17.13.17l8.69.19c.1,0,.17-.06.14-.12l-.08-.75s-.09-.07-.14-.07Z"/>
          </g>
          <path class="cls-25" d="m89.82,74.87c-1.14.78-5.4,2.43-5.54,2.52.03-.06.48-1.02-.47-1.27l4.69-3.03c.51-.41.82-1.02.83-1.68.02-1.68.07-4.03.07-4.41v-.47c0-.71.54-1.31,1.25-1.36h.09c.77,0,1.33.65,1.34,1.43.07,5.66-.17,6.84-2.26,8.28Z"/>
          <path class="cls-25" d="m84.28,77.4h0s-.04.01-.06,0c-.18-.12-.41-1.27-.41-1.27.95.25.5,1.21.47,1.27Z"/>
          <path class="cls-25" d="m84.28,77.4h-.06l-2.01-.02-1.34.17c-.25.03-.48-.14-.51-.39,0-.02,0-.04,0-.06h0c0-.14.07-.27.18-.35l1.25-.96c.11-.09.26-.11.39-.08l1.63.43c.95.25.5,1.2.47,1.27Z"/>
          <path class="cls-23" d="m90.06,64.99c-1.29.55-1.15,2.27-1.08,4.54,2.57-.6,3.53-.07,3.51,0,.12-.76.5-2.82-.52-4.09-.44-.61-1.25-.8-1.92-.46Z"/>
          <path class="cls-23" d="m85.69,86.78c-1.79,0-3.49.45-4.76,1.47-.24-1.11-.33-2.24-.25-3.37.04-.52.14-1.1.61-1.42.57-.39,1.49-.23,2.1.2s.97,1.05,1.31,1.64c.26.46.6,1.09,1,1.48Z"/>
          <path class="cls-23" d="m81.7,83.28s1.68.23,2.71,2.46c0,0,.76-.61,1.48-.65,0,0-2.31-2.47-4.19-1.82Z"/>
          <path class="cls-11" d="m85.69,86.78c-1.79,0-3.49.45-4.76,1.47-.24-1.11-.33-2.24-.25-3.37.04-.52.14-1.1.61-1.42.57-.39,1.49-.23,2.1.2s.97,1.05,1.31,1.64c.26.46.6,1.09,1,1.48Z"/>
          <path class="cls-23" d="m80.32,88.68c.27.39.16.93-.23,1.19-.39.27-.93.16-1.19-.23s-.16-.93.23-1.19c0,0,.01,0,.02-.01.39-.25.92-.14,1.18.24Z"/>
          <path class="cls-11" d="m80.32,88.68c.27.39.16.93-.23,1.19-.39.27-.93.16-1.19-.23s-.16-.93.23-1.19c0,0,.01,0,.02-.01.39-.25.92-.14,1.18.24Z"/>
          <path class="cls-23" d="m86.17,105.75c-.66.03-1.32-.07-1.94-.31-.42-.18-.71-.58-.75-1.04l-.36-3.39c.57-.49,4.07-.51,4.88,1.17,0,0-.22.77-.62,2.4-.27,1.12-.58,1.14-1.22,1.17Z"/>
          <path class="cls-11" d="m86.17,105.75c-.66.03-1.32-.07-1.94-.31-.42-.18-.71-.58-.75-1.04l-.36-3.39c.57-.49,4.07-.51,4.88,1.17,0,0-.22.77-.62,2.4-.27,1.12-.58,1.14-1.22,1.17Z"/>
          <path class="cls-23" d="m105.57,106.07c-.65.11-1.33.08-1.97-.09-.44-.13-.77-.49-.86-.94l-.59-2.7c.26-.74,3.1-1.48,4.89-.1,0,0-.22,1.8-.39,2.54-.19.83-.45,1.2-1.09,1.29Z"/>
          <path class="cls-11" d="m105.57,106.07c-.65.11-1.33.08-1.97-.09-.44-.13-.77-.49-.86-.94l-.59-2.7c.26-.74,3.1-1.48,4.89-.1,0,0-.22,1.8-.39,2.54-.19.83-.45,1.2-1.09,1.29Z"/>
          <path class="cls-23" d="m95.15,103.15c-10.24-1.08-12.58-2.31-16.11-3.54-2.15-.74-4.85-1.37-5.95-3.35-.76-1.37-1-3.9.46-4.48,2.7-1.08,5.25-2.5,7.58-4.24,1.18-.88,2.32-1.86,3.67-2.47s4.48-.92,7.14.39c3.21-.33,10.24-2.24,16.77-.13,3.07.99,5.31,4.14,5.65,7.35.35,3.27-.77,6.19-3.27,8.33-2.5,2.14-12.67,2.49-15.94,2.14Z"/>
          <path class="cls-13" d="m109.79,86.02c-2.1-.56-5.59-1.16-8.14-.81-.34-.22-.91-.47-1.25-.68,3.07-.26,5.57.26,7.44.67,0,0,1.62.6,1.94.82Z"/>
          <path class="cls-11" d="m86.44,89.71c0,.47-.38.85-.85.85-.47,0-.85-.38-.85-.85,0-.46.37-.84.84-.85.47,0,.85.38.86.85Z"/>
          <path class="cls-23" d="m111.87,105.91c-.64.17-1.31.21-1.97.11-.45-.09-.82-.42-.95-.86l-.84-7.06c.45-.6,1.97-1.12,3.29-.83.74.16,1.82.54,1.78,1.29s-.13,2.57-.36,5.98c-.08,1.13-.33,1.22-.95,1.38Z"/>
          <path class="cls-23" d="m93.84,106.37c-.65.14-1.32.14-1.97,0-.44-.11-.79-.46-.9-.91l-.71-6.18c.49-.57,2.03-1,3.34-.63.73.2,1.79.65,1.7,1.38s-.39,4.25-.43,5.01c-.05,1.14-.4,1.2-1.03,1.33Z"/>
          <path class="cls-23" d="m93.85,83.75c1.28.3,2.26,1.34,2.48,2.64.4,2.25-3.2,4.95-3.2,4.95,0,0,2.81-2.55.72-7.59Z"/>
          <path class="cls-3" d="m93.85,83.75c1.28.3,2.26,1.34,2.48,2.64.4,2.25-3.2,4.95-3.2,4.95,0,0,2.81-2.55.72-7.59Z"/>
          <path class="cls-23" d="m93.12,90.69c-.11-2.06-1.31-3.91-3.16-4.83.65-.96,1.54-2.28,2.7-2.38.91-.08,1.79.52,2.23,1.32s.49,1.77.34,2.67c-.24,1.49-.98,2.85-2.09,3.87.06-.06-.08-.58-.02-.65Z"/>
          <path class="cls-11" d="m93.12,90.69c-.11-2.06-1.31-3.91-3.16-4.83.65-.96,1.54-2.28,2.7-2.38.91-.08,1.79.52,2.23,1.32s.49,1.77.34,2.67c-.24,1.49-.98,2.85-2.09,3.87.06-.06-.08-.58-.02-.65Z"/>
          <path class="cls-13" d="m74.31,94.46c0,.89-.16,1.62-.35,1.62s-.35-.72-.35-1.62.16-1.62.35-1.62.35.72.35,1.62Z"/>
          <ellipse class="cls-13" cx="75.61" cy="94.46" rx=".35" ry="1.62"/>
          <path class="cls-11" d="m77.7,98.55c.17.02,2.34-.26,3.2-.92s.15.8-1.88,1.05c-.44.07-.89.03-1.32-.12Z"/>
        </g>
        <g id="freepik--Money--inject-1">
          <path class="cls-23" d="m104.73,53.47c-.14-1.78-1.22-3.25-3.21-3.28l-4.98,2.25c1.49.26,2.65,1.42,2.92,2.91.32,1.98,1.36,4.18,3.18,5.03,1.65-.57,5.38-2.29,5.47-2.33-.77-.47-3.16-1.71-3.38-4.57Zm-7.32-1.08v-.03h.03l-.03.03Zm9.25,5.69c-.82.37-2.38,1.08-3.47,1.49-.28-.19-.65-.2-.95-.03-1.54-1.06-2.11-3.01-2.42-4.68-.18-.99-.77-1.92-1.65-2.33.04-.07.06-.15.03-.23-.02-.08-.08-.15-.16-.18l3.17-1.45c.27.05.55,0,.79-.12,1.41.27,2.31,1.72,2.35,2.72.06,1.66.89,3.2,2.24,4.17-.08.21-.05.45.07.65h0Z"/>
          <path class="cls-23" d="m97.41,52.4v-.03h.03l-.03.03Z"/>
          <path class="cls-23" d="m106.66,58.1c-.82.37-2.38,1.08-3.47,1.49-.28-.19-.65-.2-.95-.03-1.54-1.06-2.11-3.01-2.42-4.68-.18-.99-.77-1.92-1.65-2.33.04-.07.06-.15.03-.23-.02-.08-.08-.15-.16-.18l3.17-1.45c.27.05.55,0,.79-.12,1.41.27,2.31,1.72,2.35,2.72.06,1.66.89,3.2,2.24,4.16-.08.21-.05.45.07.65Z"/>
          <g class="cls-18">
            <path class="cls-2" d="m106.66,58.1c-.82.37-2.38,1.08-3.47,1.49-.28-.19-.65-.2-.95-.03-1.54-1.06-2.11-3.01-2.42-4.68-.18-.99-.77-1.92-1.65-2.33.04-.07.06-.15.03-.23-.02-.08-.08-.15-.16-.18l3.17-1.45c.27.05.55,0,.79-.12,1.41.27,2.31,1.72,2.35,2.72.06,1.66.89,3.2,2.24,4.16-.08.21-.05.45.07.65Z"/>
          </g>
          <path class="cls-6" d="m102.62,54.58s-.06.04-.07.07c-.01.05-.02.09-.02.14l.31-.11s-.06-.08-.11-.1c-.04-.02-.08-.02-.11,0Z"/>
          <path class="cls-6" d="m102.24,55.13l-.3.1s.06.08.1.1c.03.01.07.01.11,0,.03,0,.06-.04.08-.07.01-.04.02-.09.02-.13Z"/>
          <path class="cls-6" d="m104,54.4c-.36-.9-1.36-1.36-2.27-1.05-.85.29-1.3,1.21-1.01,2.06.01.03.02.06.03.09.36.9,1.36,1.36,2.27,1.05.85-.29,1.3-1.21,1-2.06-.01-.03-.02-.06-.03-.09Zm-2.06,1.26c-.13-.07-.24-.18-.3-.32l-.24.08c-.03-.07-.06-.14-.08-.22l.24-.08c-.03-.11-.05-.21-.06-.32,0-.09,0-.18.03-.27l.31.03c-.02.07-.03.15-.03.23,0,.08.01.17.03.25l.36-.12c-.01-.1-.02-.19-.02-.29,0-.08.03-.15.07-.22.05-.08.13-.13.22-.15.12-.04.25-.03.36.03.13.07.24.19.3.32l.24-.08.08.22-.24.08c.05.16.06.32.03.48l-.31-.02c.02-.12.02-.25-.01-.37l-.37.12c.01.09.02.19.02.28,0,.08-.03.15-.07.22-.05.07-.12.13-.2.15-.12.04-.25.03-.36-.03Z"/>
          <path class="cls-23" d="m94.84,50.44s-.04,0-.06-.02c-.4-.14-1.01-.76-1.54-1.62-.52-.86-.8-1.69-.73-2.11h0c0-.07.04-.14.08-.2h0s.03-.03.05-.04c.02-.01.04-.02.06-.03.07-.01.15,0,.22.02.09.03.17.07.25.12.06.04.12.08.18.13.03.03.07.06.11.09.4.38.74.81,1.02,1.29.29.46.52.96.67,1.48.01.05.02.1.03.14.02.08.03.16.04.24.01.09.01.18,0,.27,0,.07-.04.14-.09.19-.01.01-.03.02-.04.03-.01,0-.03.02-.04.02-.06.01-.13,0-.19-.02Z"/>
          <path class="cls-23" d="m94.84,50.44l-.03-.05-1.13-1.86s-.06-.1-.09-.14l-1.05-1.72h0c0-.06.03-.11.05-.16.01-.02.02-.03.03-.05l.11-.07.35-.22.15.26.03.05.11.18.08.13,1.68,2.76.06.1.12.19.03.05.16.25-.4.24-.08.05c-.06.02-.12.02-.18,0Z"/>
          <path class="cls-23" d="m93.09,46.17c-.34.22-.08,1.26.59,2.37s1.48,1.82,1.82,1.61.08-1.26-.59-2.37-1.48-1.82-1.82-1.61Z"/>
          <path class="cls-6" d="m93.09,46.17c-.34.22-.08,1.26.59,2.37s1.48,1.82,1.82,1.61.08-1.26-.59-2.37-1.48-1.82-1.82-1.61Z"/>
          <path class="cls-23" d="m93.27,46.41s-.04.03-.05.06c.28,0,.88.63,1.4,1.51s.81,1.68.68,1.94c.02,0,.05,0,.07-.02.23-.14-.05-1.03-.63-1.99s-1.24-1.63-1.47-1.49Z"/>
          <path class="cls-10" d="m93.27,46.41s-.04.03-.05.06c.28,0,.88.63,1.4,1.51s.81,1.68.68,1.94c.02,0,.05,0,.07-.02.23-.14-.05-1.03-.63-1.99s-1.24-1.63-1.47-1.49Z"/>
          <path class="cls-10" d="m93.23,46.46c-.13.25.15,1.08.68,1.94s1.12,1.51,1.4,1.51c.13-.25-.15-1.08-.68-1.94s-1.13-1.51-1.4-1.51Z"/>
          <path class="cls-23" d="m72.93,45.59c.99.35,1.29,1.75.51,3.09s-2.15,1.79-2.94,1.11c-.69-.59-.7-1.83-.1-2.86s1.69-1.64,2.54-1.34Z"/>
          <path class="cls-23" d="m72.59,45.46c.93.33,1.19,1.68.43,2.97s-2.06,1.75-2.81,1.11c-.65-.55-.65-1.76-.06-2.76s1.63-1.6,2.44-1.32Z"/>
          <path class="cls-6" d="m72.59,45.46c.93.33,1.19,1.68.43,2.97s-2.06,1.75-2.81,1.11c-.65-.55-.65-1.76-.06-2.76s1.63-1.6,2.44-1.32Z"/>
          <path class="cls-23" d="m72.26,45.97s.08.03.11.05h0c.56.34.66,1.27.16,2.14s-1.36,1.25-1.94.93h0s-.07-.05-.11-.07c-.51-.39-.52-1.31-.07-2.08s1.25-1.21,1.84-.97Z"/>
          <path class="cls-4" d="m72.37,46.02h0c.56.34.66,1.27.16,2.14s-1.36,1.25-1.94.93h0c-.43-.45-.41-1.31.01-2.04s1.16-1.17,1.77-1.03Z"/>
          <path class="cls-23" d="m110.59,64.76c.47.95-.1,2.19-1.26,2.77s-2.49.26-2.96-.69.1-2.19,1.26-2.76,2.49-.27,2.96.69Z"/>
          <path class="cls-23" d="m110.4,64.38c.47.95-.1,2.19-1.26,2.76s-2.49.26-2.96-.69.1-2.19,1.26-2.77,2.49-.26,2.96.69Z"/>
          <path class="cls-6" d="m110.4,64.38c.47.95-.1,2.19-1.26,2.76s-2.49.26-2.96-.69.1-2.19,1.26-2.77,2.49-.26,2.96.69Z"/>
          <path class="cls-23" d="m109.86,64.61s.04.09.06.14h0c.23.71-.2,1.54-1.01,1.94s-1.73.23-2.15-.38h0s-.05-.08-.07-.13c-.35-.71.08-1.64.95-2.07s1.87-.2,2.23.51Z"/>
          <path class="cls-4" d="m109.92,64.75h0c.23.71-.2,1.54-1.01,1.94s-1.73.23-2.15-.38h0c-.23-.69.2-1.53,1.01-1.94s1.74-.23,2.15.38Z"/>
          <path class="cls-23" d="m89.86,43.94l-4.52,2.37c-1.58-1.08-2.92-1.2-4.52-.16-.51.31-1.04.58-1.6.81-.36.16-.74.3-1.12.41-.75.18-1.54-.08-2.03-.67,2.06-1.03,2.97-1.82,5.03-2.84.33.54.96.54,1.61.35.91-.27,1.87-.92,2.16-1.04,1.68-.65,3.57-.35,4.97.77Z"/>
          <path class="cls-4" d="m88.98,43.88c-1.36-1.12-3.28-.72-4.19-.36-.5.2-3,1.8-3.75.69-2.06,1.02-2.22,1.47-4.28,2.49.33.28,1.26.89,3.34-.57,1.57-1.1,3.6-1.31,5.18-.25,1.43-.75,2.26-1.26,3.7-2Z"/>
          <path class="cls-23" d="m77.07,46.42c-.16.1-.3.2-.46.3l.53.27c.13-.18.1-.43-.07-.57Z"/>
          <path class="cls-23" d="m81.4,44.37c-.23.1-.49.05-.67-.12.1-.1.22-.18.35-.22.09.12.2.24.32.33Z"/>
          <path class="cls-23" d="m85.9,45.71c-.31-.15-.69-.12-.97.09l.38.23c.16-.15.36-.26.58-.31Z"/>
          <path class="cls-23" d="m89.39,43.88c-.25.06-.49.18-.69.34-.13-.18-.09-.43.09-.56.02-.01.03-.02.05-.03.19.06.38.15.55.25Z"/>
          <path class="cls-12" d="m82.72,44.21c-.24.35-2.58,2.08-3.49,2.75-.36.16-.74.3-1.12.41-.75.18-1.54-.08-2.03-.67,2.06-1.03,2.97-1.82,5.03-2.84.33.54.96.54,1.61.35Z"/>
          <path class="cls-6" d="m81.24,45.31c.05.13.86-.06,1.82-.42s1.69-.75,1.65-.86-.86.06-1.82.42c-.95.36-1.7.74-1.65.86Z"/>
          <path class="cls-23" d="m101.28,84.1c-2.11-4.82,3.84-8.59,1.74-13.41l7.46.97c2.11,4.82-3.84,8.59-1.74,13.41l-7.46-.97Z"/>
          <path class="cls-4" d="m102.22,83.61l5.11.66c-.09-.19,0-.41.19-.5.08-.03.16-.04.24-.02-.68-3.84,3.17-7.1,2.49-10.92-.34-.08-.62-.34-.71-.68l-5.11-.66c.09.19,0,.41-.19.5-.08.04-.16.04-.24.02.68,3.84-3.17,7.1-2.49,10.92.34.08.62.33.71.67Z"/>
          <path class="cls-6" d="m106.45,77.63s-.1,0-.14.04c-.05.04-.1.09-.14.14l.4.05c.01-.05,0-.11-.01-.16-.02-.04-.06-.06-.11-.06Z"/>
          <path class="cls-6" d="m105.56,78.01l-.39-.05c-.02.05-.02.1,0,.15.02.04.06.06.1.06.05,0,.1,0,.14-.03.06-.04.11-.08.15-.13Z"/>
          <path class="cls-6" d="m107.97,78.16c.51-1.11-.09-2.14-1.25-2.29s-2.42.65-2.93,1.75.09,2.14,1.25,2.29,2.42-.64,2.93-1.75Zm-3.17.25c-.07-.16-.07-.33,0-.49l-.31-.04.12-.27.31.04c.07-.13.15-.26.24-.37.08-.1.17-.19.28-.27l.28.19c-.09.06-.17.13-.24.22-.07.08-.14.18-.19.27l.47.06c.08-.11.16-.21.25-.31.08-.08.17-.15.27-.2.11-.05.22-.07.34-.05.14,0,.26.09.33.22.07.16.07.34,0,.5l.31.04c-.04.09-.08.18-.12.27l-.31-.04c-.1.2-.24.38-.41.53l-.28-.16c.13-.11.24-.25.33-.39l-.48-.06c-.07.11-.16.21-.25.31-.08.08-.17.15-.27.2-.1.05-.22.07-.34.05-.14,0-.27-.09-.33-.22h0Z"/>
          <path class="cls-23" d="m105.67,84.86c-1.27-.56-1.85-2.05-1.29-3.32.56-1.27,2.05-1.85,3.32-1.29,1.27.56,1.85,2.04,1.29,3.31-.56,1.27-2.04,1.85-3.32,1.29,0,0,0,0,0,0Z"/>
          <path class="cls-23" d="m105.55,85.14c-1.27-.56-1.85-2.05-1.29-3.32.56-1.27,2.05-1.85,3.32-1.29,1.27.56,1.85,2.05,1.29,3.32-.56,1.27-2.04,1.85-3.32,1.29,0,0,0,0,0,0Z"/>
          <path class="cls-6" d="m105.55,85.14c-1.27-.56-1.85-2.05-1.29-3.32.56-1.27,2.05-1.85,3.32-1.29,1.27.56,1.85,2.05,1.29,3.32-.56,1.27-2.04,1.85-3.32,1.29,0,0,0,0,0,0Z"/>
          <path class="cls-23" d="m108.28,83.6c-.03.06-.06.13-.1.19-.53.89-1.67,1.19-2.57.66s-1.19-1.67-.66-2.57c.53-.89,1.67-1.19,2.57-.66.82.48,1.15,1.51.76,2.38Z"/>
          <path class="cls-4" d="m108.28,83.6c-.03.06-.06.13-.1.19-.64.82-1.82.97-2.64.33-.68-.53-.91-1.46-.56-2.25.03-.06.06-.12.09-.18.64-.82,1.82-.97,2.64-.34.68.53.92,1.46.57,2.25Z"/>
          <g class="cls-22">
            <path class="cls-2" d="m105.87,83.43c-.41-.1-.55-.48-.38-.97l-.31-.15.13-.29.31.15c.13-.24.31-.44.53-.6l.3.29c-.19.12-.35.29-.46.49l.48.22c.2-.25.45-.51.82-.42.41.1.55.48.37.98l.31.15-.13.29-.31-.15c-.1.19-.24.35-.41.48l-.31-.27c.14-.1.26-.24.35-.39l-.5-.23c-.2.25-.44.51-.79.42Zm1-.66l.41.19c.04-.17-.02-.29-.13-.32s-.18.03-.28.13h0Zm-.87.18c.09.02.17-.03.26-.12l-.39-.18c-.03.16.01.27.13.3h0Z"/>
          </g>
          <path class="cls-23" d="m62.33,55.37c-.64-1.08-.29-2.48.79-3.13,1.08-.64,2.48-.29,3.13.79s.29,2.48-.79,3.13c0,0,0,0,0,0-1.08.64-2.48.29-3.12-.79h0Z"/>
          <path class="cls-23" d="m62.09,55.52c-.64-1.08-.28-2.48.8-3.13,1.08-.64,2.48-.28,3.13.8.64,1.08.28,2.48-.8,3.13-1.08.64-2.48.28-3.13-.8Z"/>
          <path class="cls-6" d="m62.09,55.52c-.64-1.08-.28-2.48.8-3.13,1.08-.64,2.48-.28,3.13.8.64,1.08.28,2.48-.8,3.13-1.08.64-2.48.28-3.13-.8Z"/>
          <path class="cls-23" d="m64.92,55.81c-.05.03-.11.06-.17.09-.86.38-1.87-.01-2.25-.88-.34-.79-.05-1.7.68-2.15.12-.07.24-.12.37-.15.9-.28,1.85.22,2.13,1.12.23.76-.08,1.58-.77,1.98h0Z"/>
          <path class="cls-4" d="m64.92,55.81c-.05.03-.11.06-.17.09-.9.27-1.85-.24-2.12-1.15-.22-.75.09-1.56.77-1.96.05-.03.1-.05.16-.07.9-.28,1.85.22,2.13,1.12.23.76-.08,1.58-.77,1.98h0Z"/>
          <g class="cls-22">
            <path class="cls-2" d="m63.22,54.41c-.25-.29-.15-.65.22-.91l-.15-.27.25-.14.15.27c.22-.11.46-.17.71-.16l.07.37c-.2,0-.41.03-.59.12l.23.42c.28-.07.6-.14.83.13s.15.65-.24.92l.15.27-.25.14-.15-.27c-.17.08-.36.13-.55.14l-.08-.36c.16,0,.32-.03.46-.1l-.24-.43c-.26.07-.57.12-.79-.12Zm1.08.04l.2.36c.12-.11.14-.22.07-.31s-.15-.06-.26-.06h0Zm-.74-.32c.07.06.17.08.25.05l-.19-.34c-.1.1-.13.21-.06.29h0Z"/>
          </g>
          <path class="cls-23" d="m60.25,68.56c3.52-3.7.51-7.41,4.01-11.11h-6.05c-3.51,3.7-.5,7.41-4.01,11.11h6.04Z"/>
          <path class="cls-4" d="m59.73,68.06h-4.14c.22-.26.14-.47-.12-.47,2.04-3.05.41-6.11,2.45-9.16.32-.04.61-.21.81-.47h4.14c-.22.26-.14.47.12.47-2.04,3.05-.41,6.11-2.45,9.16-.32.04-.61.21-.81.47Z"/>
          <path class="cls-6" d="m58.91,62.73s.07.02.09.05c.03.04.04.08.05.13h-.32s.04-.1.08-.13c.03-.03.07-.04.11-.04Z"/>
          <path class="cls-6" d="m59.42,63.14h.31s-.03.09-.07.12c-.03.03-.06.04-.1.04-.04,0-.07-.01-.09-.04-.03-.04-.05-.08-.06-.12Z"/>
          <path class="cls-6" d="m59.07,64.74c.97-.01,1.77-.75,1.86-1.72.05-.96-.6-1.74-1.53-1.74-.97.01-1.77.75-1.86,1.72-.05.96.6,1.74,1.53,1.74Zm.45-1.06c-.09,0-.17-.02-.24-.08-.06-.05-.1-.12-.12-.19-.03-.09-.05-.18-.06-.28h-.39c0,.12.04.24.09.35l-.29.12c-.07-.15-.11-.31-.11-.47h-.25c0-.08.01-.15.02-.23h.25c.02-.15.09-.3.19-.41.09-.09.21-.14.33-.14.09,0,.17.02.24.08.06.05.1.12.13.19.03.09.05.18.07.28h.38c0-.08-.01-.17-.04-.25-.02-.08-.05-.15-.09-.22l.29-.13c.05.08.08.16.1.25.03.11.04.22.04.33h.25c0,.08-.01.15-.02.23h-.25c-.02.15-.09.29-.19.4-.08.1-.2.15-.33.16h0Z"/>
        </g>
      </g>
    </g>
  </g>
</svg>