<?xml version="1.0" encoding="UTF-8"?>
<svg id="Layer_2" data-name="Layer 2" xmlns="http://www.w3.org/2000/svg" xmlns:xlink="http://www.w3.org/1999/xlink" viewBox="0 0 272.92 299.81">
  <defs>
    <style>
      .cls-1 {
        fill: #f0f0f0;
      }

      .cls-2 {
        fill: #e5baab;
      }

      .cls-3 {
        fill: #fff;
      }

      .cls-4, .cls-5 {
        opacity: .2;
      }

      .cls-6 {
        fill: #f5f5f5;
      }

      .cls-7 {
        fill: #455a64;
      }

      .cls-8, .cls-9 {
        opacity: .3;
      }

      .cls-8, .cls-5, .cls-10 {
        isolation: isolate;
      }

      .cls-11 {
        fill: #e0e0e0;
      }

      .cls-12 {
        fill: #3e73ff;
      }

      .cls-13 {
        fill: url(#linear-gradient);
      }

      .cls-10 {
        opacity: .1;
      }

      .cls-14 {
        fill: #263238;
      }

      .cls-15 {
        fill: #d78776;
      }
    </style>
    <linearGradient id="linear-gradient" x1="56.08" y1="291.47" x2="214.38" y2="56.77" gradientUnits="userSpaceOnUse">
      <stop offset="0" stop-color="#363a50"/>
      <stop offset=".59" stop-color="#363a50"/>
      <stop offset="1" stop-color="#262939"/>
    </linearGradient>
  </defs>
  <g id="Layer_1-2" data-name="Layer 1">
    <g>
      <path class="cls-13" d="m253.53,117.05c-9.91-21.38-23.41-41.05-40.42-57.46C188.63,35.97,102.12-25.11,68.34,11.32c-8.91,9.61-6.4,24.82-10.05,37.41-4.04,13.96-15.55,24.21-24.86,35.4-23.43,28.19-4.53,65.05-11.28,97.3-2.87,13.7-10.25,25.94-15.97,38.72-27.64,61.7,44.16,38.38,79.95,53.43,8.51,3.58,16.36,8.55,24.77,12.37,89.46,40.68,175.93-11.73,160.13-111.12-3.16-19.87-9.01-39.46-17.51-57.78Z"/>
      <g>
        <g id="freepik--background-complete--inject-16">
          <g id="freepik--freepik--background-complete--inject-2--inject-16">
            <path class="cls-1" d="m188.58,117.22c-6.81,9.13-19.73,11.01-28.86,4.21-9.13-6.81-11.01-19.73-4.21-28.86,6.8-9.12,19.71-11.01,28.84-4.22h.02c9.13,6.81,11.02,19.72,4.21,28.86h0Z"/>
            <path class="cls-6" d="m184.64,114.29c-5.19,6.96-15.04,8.4-22,3.21-6.96-5.19-8.4-15.04-3.21-22,5.19-6.96,15.04-8.4,22-3.21,0,0,0,0,0,0h0c6.96,5.18,8.4,15.02,3.22,21.98h-.01Z"/>
            <path class="cls-11" d="m184.93,113.88c-.08-.05.28-.65.8-1.76.73-1.56,1.21-3.23,1.43-4.94.14-1.17.16-2.36.04-3.54-.13-1.34-.44-2.67-.92-3.93-.52-1.4-1.24-2.71-2.15-3.89-.47-.63-1-1.22-1.56-1.76-.59-.56-1.21-1.07-1.87-1.54-.67-.46-1.37-.87-2.09-1.23-.71-.35-1.44-.64-2.19-.87-.72-.23-1.47-.4-2.22-.51-.72-.12-1.45-.17-2.18-.17-1.35-.02-2.7.13-4.01.46-1.15.29-2.25.71-3.31,1.25-1.53.79-2.93,1.82-4.15,3.04-.87.87-1.3,1.41-1.37,1.37s.24-.67,1.03-1.67c1.14-1.4,2.52-2.58,4.09-3.48,2.35-1.35,5.01-2.07,7.72-2.09,1.6-.02,3.2.21,4.74.66.81.24,1.61.55,2.37.92.78.38,1.54.83,2.26,1.32.71.51,1.38,1.07,2.02,1.67.61.59,1.17,1.23,1.67,1.91.49.65.93,1.35,1.31,2.08,1.65,3.1,2.22,6.66,1.63,10.12-.31,1.78-.94,3.49-1.86,5.04-.68,1.08-1.17,1.58-1.23,1.54Z"/>
            <path class="cls-11" d="m167.86,113.45l-1.61,2.21-1.96-1.43,1.56-2.16c-1.87-1.54-3.31-3.51-3.78-5.16l2.84-1.63c.56,1.62,1.53,3.06,2.82,4.19l2.4-3.3c-1.81-2.13-3.73-4.64-1.68-7.47,1.52-2.1,4.35-2.8,7.74-.88l1.59-2.19,1.98,1.43-1.59,2.16c1.36,1.11,2.44,2.52,3.14,4.12l-2.75,1.72c-.55-1.21-1.32-2.3-2.29-3.21l-2.44,3.32c1.83,2.11,3.71,4.58,1.68,7.38-1.49,2.08-4.29,2.77-7.67.89Zm4.36-10.19l2.04-2.81c-1.22-.53-2.05-.25-2.52.4s-.18,1.5.49,2.41Zm-.05,7.24c.5-.69.2-1.48-.43-2.4l-1.98,2.75c1.15.49,1.96.28,2.41-.35Z"/>
            <path class="cls-1" d="m114.76,147.72c1.91,13-7.08,25.1-20.09,27.01-13,1.91-25.1-7.08-27.01-20.09-1.91-13,7.08-25.1,20.09-27.01,0,0,0,0,.01,0h.05c12.99-1.9,25.06,7.09,26.97,20.08,0,0,0,0,0,0h-.02Z"/>
            <path class="cls-6" d="m109.16,148.53c1.46,9.91-5.38,19.13-15.29,20.59-9.91,1.46-19.13-5.38-20.59-15.29-1.46-9.91,5.38-19.13,15.29-20.59h.04c9.9-1.45,19.1,5.39,20.55,15.29Z"/>
            <path class="cls-11" d="m109.07,147.97c-.11,0-.3-.76-.79-2.09-.68-1.87-1.65-3.63-2.87-5.2-.84-1.07-1.8-2.05-2.85-2.92-1.21-.98-2.54-1.8-3.96-2.45-.77-.35-1.56-.64-2.36-.88-.84-.25-1.7-.43-2.57-.55-.9-.12-1.81-.17-2.71-.16-.93.02-1.86.11-2.79.27-.92.17-1.82.41-2.71.71-.86.3-1.69.66-2.5,1.09-.77.4-1.52.86-2.22,1.37-.68.5-1.32,1.04-1.92,1.64-1.11,1.09-2.08,2.33-2.88,3.67-.69,1.17-1.25,2.42-1.67,3.72-.6,1.9-.91,3.88-.92,5.87,0,1.42.09,2.21,0,2.23s-.35-.75-.52-2.2c-.22-2.07-.05-4.16.5-6.17.81-3.02,2.39-5.78,4.58-8.01.63-.65,1.31-1.25,2.03-1.79,1.53-1.17,3.23-2.08,5.04-2.72.95-.33,1.93-.59,2.92-.77.99-.17,2-.27,3.01-.29.98,0,1.96.06,2.93.19.93.14,1.85.34,2.75.62.86.26,1.71.59,2.52.99,1.51.73,2.91,1.65,4.17,2.75,1.09.95,2.06,2.03,2.9,3.21,1.21,1.7,2.09,3.6,2.6,5.62.36,1.43.37,2.24.29,2.25Z"/>
            <path class="cls-11" d="m94.79,161.54l.5,3.12-2.78.46-.49-3.03c-2.79.27-5.57-.16-7.29-1.12l.99-3.64c1.78.86,3.75,1.24,5.71,1.11l-.75-4.66c-3.21-.25-6.83-.73-7.46-4.72-.46-2.95,1.26-5.83,5.59-7.03l-.49-3.09,2.79-.46.49,3.03c2.01-.21,4.04.06,5.92.78l-.84,3.67c-1.43-.55-2.96-.82-4.5-.77l.76,4.74c3.21.23,6.77.71,7.4,4.64.47,2.91-1.25,5.75-5.54,6.97Zm-4.73-11.85l-.64-3.95c-1.42.57-1.88,1.47-1.73,2.39s1.06,1.37,2.37,1.56Zm5.87,5.96c-.16-.98-1.05-1.37-2.29-1.6l.61,3.84c1.31-.54,1.8-1.37,1.66-2.25h.02Z"/>
            <path class="cls-1" d="m162.94,65.06c-1.17,6.39-7.3,10.61-13.69,9.44-6.39-1.17-10.61-7.3-9.44-13.69,1.17-6.39,7.3-10.61,13.69-9.44h.03c6.37,1.17,10.59,7.29,9.42,13.66h0v.02Z"/>
            <path class="cls-6" d="m160.19,64.54c-.89,4.87-5.56,8.09-10.43,7.19-4.87-.89-8.09-5.56-7.19-10.43.89-4.87,5.56-8.09,10.43-7.19h0c4.86.89,8.09,5.55,7.2,10.42,0,0,0,0,0,.01Z"/>
            <path class="cls-11" d="m160.24,64.27c-.05-.37-.06-.74-.03-1.1-.02-.98-.19-1.96-.5-2.89-.22-.64-.51-1.26-.87-1.83-.41-.65-.9-1.25-1.47-1.77-.3-.29-.62-.55-.97-.79-.36-.25-.74-.46-1.13-.65-.4-.2-.82-.37-1.24-.51-.44-.14-.89-.24-1.35-.32-.46-.07-.91-.1-1.37-.1-.45,0-.9.04-1.34.11-.43.07-.85.16-1.26.3-.4.12-.79.28-1.16.46-1.31.63-2.44,1.58-3.3,2.75-.59.79-1.06,1.67-1.37,2.6-.09.36-.21.71-.37,1.04-.05-.37,0-.76.11-1.11.22-1,.64-1.96,1.21-2.81.39-.59.85-1.13,1.37-1.62.61-.55,1.29-1.01,2.03-1.37.4-.2.81-.38,1.23-.52.45-.15.91-.26,1.37-.34.48-.08.96-.12,1.44-.13,1,0,1.99.15,2.94.46.46.13.92.31,1.35.51.81.42,1.56.95,2.21,1.59,1.1,1.08,1.92,2.43,2.37,3.9.29.99.4,2.02.32,3.04,0,.38-.09.75-.25,1.1Z"/>
            <path class="cls-11" d="m151.4,68.35l-.27,1.55-1.37-.23.26-1.5c-1.21-.25-2.34-.83-3.24-1.68l1.04-1.55c.7.69,1.56,1.18,2.5,1.43l.39-2.29c-1.46-.63-3.08-1.43-2.75-3.4.25-1.46,1.52-2.52,3.73-2.4l.26-1.53,1.37.23-.26,1.5c.97.23,1.88.68,2.64,1.33l-.98,1.57c-.57-.5-1.24-.88-1.97-1.11l-.4,2.35c1.47.62,3.05,1.41,2.72,3.35-.24,1.43-1.49,2.49-3.69,2.38Zm-.34-6.31l.33-1.95c-.76.04-1.11.39-1.19.84s.29.82.86,1.11Zm1.8,3.73c.08-.46-.27-.81-.83-1.12l-.33,1.89c.71-.05,1.08-.35,1.15-.77Z"/>
          </g>
        </g>
        <g id="freepik--Floor--inject-16">
          <path class="cls-14" d="m234.05,241.94c0,.07-59.18.12-98.6.12s-88.02-.05-88.02-.12,48.57-.12,88.02-.12,98.6.05,98.6.12Z"/>
        </g>
        <g id="freepik--Plant--inject-16">
          <path class="cls-12" d="m81.71,223.22c7.86-5.5,9.65-15.69,9.34-24.86-.05-1.53.11-3.14-.61-4.49s-2.43-2.26-3.8-1.61c-1.14.54-1.63,1.86-2.27,2.95-.85,1.46-2.1,2.64-3.59,3.43-.97.5-2.18.82-3.14.28-1.32-.73-1.48-2.55-1.47-4.07.02-2.84.04-5.68.05-8.51,0-1.52,0-3.07-.46-4.52s-1.52-2.79-2.97-3.21-3.24.43-3.54,1.92c-.06.63-.07,1.26-.05,1.89-.04.63-.33,1.33-.92,1.51s-1.22-.25-1.67-.7c-1.57-1.54-2.64-3.52-3.63-5.5-.99-1.98-1.97-3.99-3.39-5.66s-3.4-3.01-5.58-3.13-4.5,1.22-5.04,3.36.7,4.33,2.06,6.06c2.02,2.58,4.4,4.85,7.07,6.75.52.28.94.73,1.18,1.27.33,1.02-.63,2.03-1.63,2.36-1.14.38-2.36.26-3.55.4s-2.47.66-2.92,1.78c-.62,1.56.68,3.21,1.96,4.26,2.57,2.14,5.48,3.82,8.61,4.97,1.12.41,2.29.77,3.21,1.56s1.45,2.15.92,3.21-1.95,1.42-3.12,1.2-2.22-.86-3.34-1.28c-2.09-.79-4.79-.65-6.13,1.16-.88,1.19-.96,2.85-.51,4.26.51,1.39,1.28,2.67,2.29,3.76,3.32,3.98,7.63,7.01,12.5,8.78,4.85,1.68,9.35,2.14,14.17.37"/>
          <path class="cls-14" d="m51.14,170.24c.04.06.09.1.15.15l.46.4c.4.35.99.87,1.72,1.56,2.09,1.94,4.04,4.04,5.81,6.28,1.14,1.41,2.29,3.01,3.54,4.74s2.53,3.61,3.83,5.63c1.37,2.1,2.62,4.27,3.75,6.51.59,1.16,1.11,2.38,1.65,3.62l1.62,3.78c2.08,4.78,3.89,9.68,5.42,14.66,1.24,4.07,2.09,8.26,2.54,12.49.3,2.86.34,5.73.14,8.6-.08,1.02-.16,1.8-.23,2.33-.03.26-.05.46-.07.6,0,.07,0,.14,0,.21.02-.07.03-.14.04-.21.02-.2.06-.4.1-.6.09-.53.18-1.32.28-2.33.25-2.87.23-5.76-.05-8.62-.42-4.25-1.26-8.45-2.49-12.55-1.53-5.01-3.34-9.92-5.43-14.72l-1.62-3.78c-.54-1.24-1.06-2.47-1.65-3.64-1.14-2.24-2.4-4.42-3.78-6.52-1.31-2.02-2.62-3.89-3.85-5.62s-2.43-3.33-3.58-4.73c-1.8-2.23-3.77-4.31-5.9-6.23-.75-.68-1.35-1.19-1.76-1.52l-.46-.38-.18-.11Z"/>
          <path class="cls-14" d="m70.57,195.36c.07-.21.12-.43.15-.65.08-.42.17-1.03.28-1.79.22-1.51.46-3.62.68-5.96.22-2.34.49-4.41.73-5.92.11-.76.22-1.37.29-1.79.05-.22.08-.44.08-.66-.08.21-.15.42-.19.64-.11.42-.24,1.02-.38,1.77-.29,1.51-.58,3.61-.82,5.93s-.46,4.36-.6,5.96c-.07.71-.14,1.32-.19,1.8-.04.22-.05.45-.04.67Z"/>
          <path class="cls-14" d="m51,191.7c.26.05.52.08.78.09.5.05,1.23.11,2.13.21,1.79.19,4.26.55,6.96,1.05s5.13,1.09,6.87,1.55c.88.22,1.58.43,2.07.56.25.09.5.15.76.19-.23-.12-.48-.22-.73-.29-.46-.17-1.17-.4-2.04-.65-1.74-.51-4.17-1.12-6.87-1.63-2.31-.45-4.65-.78-7-.98-.92-.08-1.63-.11-2.14-.12-.26-.02-.53-.02-.79.02Z"/>
          <path class="cls-14" d="m79.1,217.11c.06-.07.1-.15.13-.24l.33-.71c.29-.62.68-1.52,1.15-2.64.94-2.25,2.15-5.38,3.44-8.86,1.29-3.48,2.46-6.63,3.35-8.88l1.07-2.68c.11-.29.21-.53.28-.73.04-.08.07-.17.08-.26-.06.07-.1.15-.13.24l-.33.71c-.29.61-.68,1.52-1.15,2.64-.94,2.24-2.15,5.38-3.44,8.86s-2.46,6.63-3.35,8.88l-1.07,2.67-.28.73c-.04.08-.07.17-.08.26Z"/>
          <path class="cls-14" d="m53.09,208.74c.08.05.17.08.26.11l.76.25,2.79.92c2.35.77,5.59,1.83,9.16,3.07,3.58,1.23,6.82,2.29,9.19,2.99,1.19.36,2.14.64,2.81.82l.77.2c.09.03.18.05.27.05-.08-.05-.17-.08-.26-.11l-.75-.25-2.79-.92c-2.35-.77-5.59-1.83-9.16-3.07s-6.82-2.29-9.16-2.98c-1.19-.36-2.14-.64-2.81-.82l-.77-.2c-.1-.03-.2-.05-.31-.05Z"/>
        </g>
        <g id="freepik--Device--inject-16">
          <path class="cls-14" d="m156.43,219.06l-50.86-.23c-6.12-.03-11.05-5.01-11.02-11.13h0s.56-127.51.56-127.51c.03-6.12,5.01-11.05,11.13-11.03l50.86.23c6.12.03,11.05,5.01,11.03,11.13l-.54,127.51c-.02,6.11-5,11.05-11.11,11.03h0s-.03,0-.03,0Z"/>
          <path class="cls-3" d="m156.99,73.81l-9.86-.05c-1.35.02-2.43,1.14-2.41,2.49,0,0,0,0,0,0h0v1.79c.02,1.35-1.05,2.47-2.41,2.49l-19.22-.09c-1.35-.04-2.42-1.16-2.39-2.51v-1.79c.03-1.35-1.03-2.47-2.38-2.51h-3.47l-8.63-.07c-4.28-.02-7.77,3.44-7.79,7.73h0s-.53,124.45-.53,124.45c0,4.28,3.45,7.75,7.72,7.79l50.76.23c4.28.02,7.77-3.44,7.79-7.73l.53-124.45c.01-4.28-3.45-7.76-7.73-7.78Z"/>
          <rect class="cls-12" x="112.78" y="135.36" width="32.69" height="31.49"/>
          <polygon class="cls-12" points="121.79 126.58 112.77 135.36 145.46 135.36 151.71 126.58 121.79 126.58"/>
          <polygon class="cls-10" points="121.79 126.58 112.77 135.36 145.46 135.36 151.71 126.58 121.79 126.58"/>
          <polygon class="cls-12" points="145.46 166.84 151.71 157.95 151.71 126.58 145.46 135.36 145.46 166.84"/>
          <polygon class="cls-8" points="145.46 166.84 151.71 157.95 151.71 126.58 145.46 135.36 145.46 166.84"/>
          <rect class="cls-12" x="119.85" y="148.43" width="17.06" height="1.93"/>
          <rect class="cls-5" x="119.85" y="148.43" width="17.06" height="1.93"/>
          <rect class="cls-12" x="122.93" y="151.81" width="10.89" height="1.82"/>
          <rect class="cls-5" x="122.93" y="151.81" width="10.89" height="1.82"/>
          <path class="cls-14" d="m119.44,125.34c-.04-.4-.11-.79-.2-1.18-.28-1.06-.92-1.99-1.79-2.64-.6-.45-1.29-.76-2.03-.89-.84-.15-1.71-.07-2.52.22-.44.15-.84.37-1.21.66-.39.28-.73.63-1.01,1.02-1.24,1.68-1.24,3.97,0,5.65.56.76,1.33,1.35,2.22,1.67,1.53.56,3.24.31,4.55-.67.87-.66,1.5-1.58,1.79-2.64.09-.39.15-.79.2-1.19.03.41,0,.82-.11,1.21-.26,1.09-.88,2.07-1.77,2.75-2.19,1.68-5.33,1.27-7.02-.92-1.36-1.77-1.38-4.24-.05-6.03,1.14-1.55,3.08-2.31,4.97-1.94,1.91.37,3.42,1.82,3.87,3.71.1.4.14.82.11,1.23Z"/>
          <path class="cls-14" d="m112.35,124.66c0-.69.38-1.15.95-1.15s.95.46.95,1.15-.39,1.15-.95,1.15c-.56-.03-.99-.51-.96-1.07,0-.02,0-.05,0-.07Zm1.6,0c0-.55-.26-.88-.65-.88s-.65.33-.65.88.25.87.65.87.65-.33.65-.87Zm1.9-1.12h.36l-2.88,4.22h-.36l2.88-4.22Zm-.92,3.11c0-.69.39-1.15.95-1.15s.95.46.95,1.15-.38,1.15-.95,1.15-.96-.46-.96-1.15h0Zm1.6,0c0-.55-.25-.88-.65-.88s-.65.33-.65.88.26.87.65.87.65-.35.65-.87h0Z"/>
          <path class="cls-14" d="m140.33,177.49c0,.92-.66,1.7-2.13,1.7-.69.01-1.37-.18-1.95-.55l.46-.92c.43.3.94.46,1.46.46.59,0,.96-.25.96-.66s-.26-.67-1.19-.67h-1.31l.27-2.88h3.12v.95h-2.14l-.08.97h.42c1.52.01,2.12.7,2.12,1.6Z"/>
          <path class="cls-14" d="m140.81,176.54c0-1.69.94-2.65,2.19-2.65s2.19.96,2.19,2.65-.92,2.65-2.19,2.65-2.19-.96-2.19-2.65Zm3.21,0c0-1.16-.41-1.65-1-1.65s-.99.48-.99,1.65.41,1.65.99,1.65.99-.48.99-1.65h0Z"/>
          <path class="cls-14" d="m148.25,175.1c.06.56-.34,1.06-.89,1.12-.06,0-.11,0-.17,0-.2,0-.4-.04-.58-.14l.18-.35c.12.07.26.11.39.1.3.02.57-.21.59-.52,0-.03,0-.06,0-.09-.14.13-.33.2-.52.19-.36.03-.68-.24-.71-.6,0,0,0,0,0,0v-.05c0-.39.34-.71.73-.7,0,0,0,0,0,0h.07c.58,0,.92.37.92,1.04Zm-.54-.36c0-.18-.15-.32-.33-.32h-.05c-.17-.03-.34.08-.37.25-.03.17.08.34.25.37,0,0,.01,0,.02,0h.11c.17.03.34-.09.37-.26,0,0,0,0,0,0,0-.02,0-.03,0-.05h0Z"/>
          <path class="cls-14" d="m150.16,175.1c.06.56-.34,1.06-.89,1.12-.06,0-.11,0-.17,0-.2,0-.4-.04-.58-.14l.19-.33c.12.07.25.11.39.1.3.02.56-.2.59-.5,0,0,0,0,0,0,0-.03,0-.06,0-.1-.14.13-.33.2-.52.19-.37.03-.69-.24-.72-.6,0,0,0,0,0,0v-.05c0-.39.34-.71.73-.7,0,0,0,0,0,0h.06c.57,0,.92.35.92,1.02Zm-.54-.36c0-.18-.15-.32-.33-.32h-.04c-.17,0-.31.14-.31.31,0,.17.14.31.31.31h0c.17.03.33-.09.36-.26,0,0,0,0,0,0,0-.01,0-.03,0-.04h0Z"/>
          <rect class="cls-14" x="146.49" y="176.94" width="3.66" height=".46"/>
          <rect class="cls-14" x="110.47" y="175.48" width="18.88" height=".59"/>
          <rect class="cls-14" x="110.47" y="177.35" width="11.46" height=".59"/>
          <path class="cls-12" d="m151.09,201.53l-37.74-.17c-.39,0-.71-.43-.7-.95l.04-9.87c0-.52.32-.94.71-.94l37.74.18c.39,0,.71.43.71.95l-.04,9.87c0,.52-.32.94-.71.94Z"/>
          <path class="cls-3" d="m130.68,196c0,.5-.36.79-1.06.78h-1.3v-2.96h1.22c.63,0,.99.28.99.77.01.3-.18.57-.46.67.37.05.63.37.61.74Zm-.3-.03c0-.38-.27-.55-.77-.55h-1v1.11h1c.49,0,.77-.16.77-.55Zm-1.76-1.9v1.07h.92c.46,0,.71-.18.72-.53s-.26-.54-.71-.54h-.92Z"/>
          <path class="cls-3" d="m131.34,195.53v-1.69h.3v1.68c0,.7.31,1.02.86,1.03s.87-.32.87-1.02v-1.68h.29v1.7c0,.85-.46,1.28-1.16,1.28s-1.16-.46-1.15-1.3Z"/>
          <path class="cls-3" d="m135.49,195.79v1.03h-.29v-1.02l-1.12-1.94h.32l.97,1.66.98-1.65h.3l-1.14,1.92Z"/>
          <rect class="cls-12" x="105.6" y="101.44" width="14.27" height="7.29"/>
          <polygon class="cls-12" points="108.68 98.89 105.6 101.44 119.87 101.44 121.97 98.89 108.68 98.89"/>
          <polygon class="cls-5" points="108.68 98.89 105.6 101.44 119.87 101.44 121.97 98.89 108.68 98.89"/>
          <polygon class="cls-12" points="119.87 108.73 121.97 105.95 121.97 98.89 119.87 101.44 119.87 108.73"/>
          <polygon class="cls-10" points="119.87 108.73 121.97 105.95 121.97 98.89 119.87 101.44 119.87 108.73"/>
          <rect class="cls-12" x="107.71" y="103.81" width="9.73" height=".75"/>
          <rect class="cls-10" x="107.71" y="103.81" width="9.73" height=".75"/>
          <rect class="cls-12" x="109.64" y="105.17" width="6.04" height=".75"/>
          <rect class="cls-10" x="109.64" y="105.17" width="6.04" height=".75"/>
          <rect class="cls-14" x="109.64" y="112.66" width="6.5" height=".99"/>
          <path class="cls-12" d="m105.6,101.44c.23-.03.46-.05.69-.05l1.88-.04c1.59,0,3.79-.03,6.21-.03l5.5.03-.07.03,1.57-1.83c.19-.23.39-.45.61-.66-.15.26-.33.5-.53.72l-1.52,1.89-.03.03h-.05l-5.5.03c-2.42,0-4.62,0-6.21-.04l-1.88-.04c-.23,0-.45-.01-.67-.05Z"/>
          <g class="cls-4">
            <path d="m105.6,101.44c.23-.03.46-.05.69-.05l1.88-.04c1.59,0,3.79-.03,6.21-.03l5.5.03-.07.03,1.57-1.83c.19-.23.39-.45.61-.66-.15.26-.33.5-.53.72l-1.52,1.89-.03.03h-.05l-5.5.03c-2.42,0-4.62,0-6.21-.04l-1.88-.04c-.23,0-.45-.01-.67-.05Z"/>
          </g>
          <path class="cls-12" d="m119.87,108.73c-.12-1.21-.16-2.43-.12-3.64-.04-1.22,0-2.45.12-3.67.12,1.22.16,2.44.12,3.67.04,1.22,0,2.43-.12,3.64Z"/>
          <g class="cls-4">
            <path d="m119.87,108.73c-.12-1.21-.16-2.43-.12-3.64-.04-1.22,0-2.45.12-3.67.12,1.22.16,2.44.12,3.67.04,1.22,0,2.43-.12,3.64Z"/>
          </g>
          <rect class="cls-14" x="129.99" y="112.66" width="6.5" height=".99"/>
          <rect class="cls-12" x="127.35" y="97.97" width="11.28" height="10.23" transform="translate(28.8 235.21) rotate(-89.52)"/>
          <polygon class="cls-12" points="130.91 95.13 127.89 97.45 138.12 97.45 140.22 95.13 130.91 95.13"/>
          <polygon class="cls-12" points="138.12 108.73 140.22 105.95 140.22 95.13 138.12 97.45 138.12 108.73"/>
          <rect class="cls-12" x="130.11" y="102.01" width="5.17" height=".75"/>
          <rect class="cls-5" x="130.11" y="102.01" width="5.17" height=".75"/>
          <rect class="cls-12" x="131.13" y="103.37" width="3.21" height=".75"/>
          <rect class="cls-5" x="131.13" y="103.37" width="3.21" height=".75"/>
          <path class="cls-12" d="m127.89,97.45c.17-.03.35-.05.53-.05l1.43-.04c1.21-.02,2.88-.04,4.72-.04h3.55l-.08.03c.64-.69,1.18-1.26,1.56-1.65.19-.22.4-.42.62-.6-.16.24-.33.47-.53.68-.36.42-.87,1-1.49,1.71l-.03.04h-3.6c-1.83,0-3.51,0-4.72-.04l-1.43-.04c-.18.02-.35.01-.53,0Z"/>
          <g class="cls-9">
            <path d="m127.89,97.45c.17-.03.35-.05.53-.05l1.43-.04c1.21-.02,2.88-.04,4.72-.04h3.55l-.08.03c.64-.69,1.18-1.26,1.56-1.65.19-.22.4-.42.62-.6-.16.24-.33.47-.53.68-.36.42-.87,1-1.49,1.71l-.03.04h-3.6c-1.83,0-3.51,0-4.72-.04l-1.43-.04c-.18.02-.35.01-.53,0Z"/>
          </g>
          <path class="cls-12" d="m138.12,108.73c-.07,0-.12-2.52-.12-5.64s.05-5.64.12-5.64.12,2.52.12,5.64-.07,5.64-.12,5.64Z"/>
          <g class="cls-9">
            <path d="m138.12,108.73c-.07,0-.12-2.52-.12-5.64s.05-5.64.12-5.64.12,2.52.12,5.64-.07,5.64-.12,5.64Z"/>
          </g>
          <rect class="cls-14" x="148.11" y="112.66" width="6.5" height=".99"/>
          <path class="cls-12" d="m146.72,101.63c.53-.07,1.07-.1,1.6-.09.99,0,2.36-.04,3.88-.04,1.34,0,2.58,0,3.51.03l-.07.03c.42-.46.76-.8,1-1.04.11-.14.25-.26.39-.36-.09.16-.19.3-.32.43-.22.27-.54.64-.92,1.1l-.03.03h-.05c-.92,0-2.17.03-3.51.03-1.52,0-2.89,0-3.88-.04-.54.01-1.08-.01-1.62-.08Z"/>
          <rect class="cls-12" x="146.72" y="101.63" width="9" height="7.1"/>
          <rect class="cls-5" x="146.72" y="101.63" width="9" height="7.1"/>
          <polygon class="cls-12" points="148.62 100.17 146.72 101.63 155.72 101.63 157.04 100.17 148.62 100.17"/>
          <polygon class="cls-12" points="155.72 108.73 157.04 106.98 157.04 100.17 155.72 101.63 155.72 108.73"/>
          <polygon class="cls-10" points="155.72 108.73 157.04 106.98 157.04 100.17 155.72 101.63 155.72 108.73"/>
          <rect class="cls-12" x="149.26" y="104.34" width="4.12" height=".55"/>
          <rect class="cls-12" x="150.08" y="105.34" width="2.56" height=".55"/>
          <path class="cls-12" d="m155.72,108.73c-.13-1.18-.17-2.37-.13-3.55-.04-1.18,0-2.37.12-3.55.12,1.18.16,2.36.12,3.55.04,1.18,0,2.37-.11,3.55Z"/>
        </g>
        <g id="freepik--Sparkles--inject-16">
          <polygon class="cls-12" points="168.56 67.41 167.63 69.12 165.92 70.05 167.63 70.98 168.56 72.68 169.49 70.98 171.19 70.05 169.49 69.12 168.56 67.41"/>
          <polygon class="cls-12" points="88.84 111.26 87.91 112.96 86.2 113.89 87.91 114.82 88.84 116.53 89.77 114.82 91.48 113.89 89.77 112.96 88.84 111.26"/>
          <polygon class="cls-12" points="175.35 74.64 174.78 75.69 173.73 76.26 174.78 76.83 175.35 77.88 175.93 76.83 176.97 76.26 175.93 75.69 175.35 74.64"/>
          <polygon class="cls-12" points="83.73 101.46 83.16 102.51 82.11 103.08 83.16 103.65 83.73 104.7 84.3 103.65 85.35 103.08 84.3 102.51 83.73 101.46"/>
        </g>
        <g id="freepik--Character--inject-16">
          <path class="cls-12" d="m213.18,220.65l-3.37-2.65,4.93-6.35,4.97,3.83-.28.41c-1.26,1.83-6.54,9.2-7.79,10.08-1.43,1.03,1.54-5.32,1.54-5.32Z"/>
          <path class="cls-14" d="m211.19,225.91c-.06-.05,1.75-2.45,4.04-5.36s4.2-5.24,4.26-5.19-1.75,2.45-4.04,5.36c-2.29,2.91-4.2,5.24-4.26,5.19Z"/>
          <path class="cls-14" d="m213.78,221.32c0,.07-.23.1-.49.1s-.48-.04-.49-.11.21-.17.49-.16.49.1.49.17Z"/>
          <path class="cls-14" d="m213.68,221.9c-.02.07-.27.07-.55.03s-.52-.1-.52-.17.25-.14.56-.1.54.17.51.24Z"/>
          <path class="cls-14" d="m217.97,217.24s-.11-.13-.21-.38c-.12-.33-.18-.68-.18-1.04,0-.37.14-.73.38-1.01.19-.21.36-.26.38-.23s-.1.14-.22.34c-.16.28-.25.59-.26.92,0,.33.03.65.09.98.04.24.05.41.02.42Z"/>
          <path class="cls-14" d="m213.13,220.84c-.03-.07.11-.19.29-.31s.35-.19.4-.13-.05.23-.25.37-.41.15-.44.07Z"/>
          <path class="cls-14" d="m212.86,220.48c-.05-.05.03-.26.19-.46s.35-.33.41-.29-.03.25-.2.46-.33.34-.41.29Z"/>
          <path class="cls-14" d="m190.83,166.12s-10.08,26.73-8.71,31.73c1.37,4.99,28.49,24.83,28.49,24.83l7.36-10.6s-21.16-16.75-21.23-17.67,8.4-23.14,8.4-23.14l-14.32-5.15Z"/>
          <path class="cls-7" d="m210.15,214.52l-.1-.05c-.07-.05-.16-.11-.27-.17l-1.01-.69c-.87-.61-2.12-1.5-3.67-2.63-3.05-2.25-7.2-5.47-11.6-9.24-1.1-.94-2.17-1.87-3.21-2.78l-1.5-1.34c-.51-.41-.95-.91-1.29-1.47-.28-.58-.35-1.23-.19-1.86.11-.59.27-1.15.41-1.69.29-1.08.58-2.08.84-2.99l1.26-4.31c.14-.49.25-.89.33-1.18l.08-.31s-.05-.04-.04-.07c0-.03.04-.05.07-.04s.05.04.04.07c0,.02-.02.04-.04.04-.01.11-.03.21-.06.31-.06.27-.15.67-.28,1.19-.26,1.03-.67,2.51-1.18,4.34-.25.92-.53,1.91-.81,2.99-.14.54-.28,1.1-.39,1.67-.15.57-.08,1.18.18,1.71.33.53.76,1.01,1.25,1.4l1.5,1.33c1.02.92,2.09,1.83,3.21,2.77,4.39,3.76,8.52,7,11.54,9.28l3.6,2.69.98.73.25.19c.05.06.1.08.1.08Z"/>
          <path class="cls-7" d="m207.7,217.75c-.05-.04,1.34-1.97,3.12-4.31s3.27-4.2,3.32-4.16-1.35,1.97-3.13,4.31-3.26,4.2-3.32,4.16Z"/>
          <path class="cls-14" d="m208.6,115.29c.92,1.8,1.37,3.35,3.15,4.28.8.42,1.78.66,2.29,1.42.53.83.28,2.04.94,2.75.97,1.06,2.95.2,4.04,1.13.97.83.66,2.62,1.71,3.35.59.42,1.37.33,2.06.58,1.1.43,1.62,1.7,1.76,2.86.15.94.03,1.9-.34,2.77-.39.88-1.2,1.5-2.15,1.65-1.25.13-2.66-.73-3.67,0-.33.3-.61.65-.84,1.03-1.07,1.37-3.05,1.6-4.42.53,0,0,0,0,0,0-.29-.23-.54-.52-.73-.84-.7-1.16-.65-2.75-1.67-3.67-.58-.41-1.23-.71-1.92-.88-.66-.25-1.35-.66-1.55-1.34-.23-.6-.55-1.16-.96-1.65-.51-.76-1.19.17-1.86-.21s-.42-1.11-.46-1.88"/>
          <path class="cls-2" d="m196.75,141.26l-8.71-2.91s-3.84,11.07-5.04,11.18c-6.53.6-13.51-1.57-15.96-2.42-.25-.28-.54-.61-.85-1.03-.27-.35-.48-.75-.61-1.17-.19-.52-.31-1.06-.35-1.61.03-.28-.18-.53-.46-.56-.16-.01-.31.04-.42.16-.28.37-.35,1.76.29,3.27s-1.64.31-2.47-.11-3.49-1.6-3.83-1.45c-.49.23-.33.79.51,1.2s3.3,1.78,3.06,2.21-4.48-1.78-4.48-1.78c0,0-.83-.61-1.13-.12-.54.88,4.12,2.89,4.58,3.07.32.13.07.6-.26.46s-4.12-2.29-4.69-1.37c-.43.69,3.83,1.69,4.38,2.58.55.88-3.15-1.09-3.53-.41-.14.25-.22.46,2.08,1.28,1.68.52,3.38.96,5.11,1.3v.02s22.88,10.24,27.82.37c5.22-10.5,4.96-12.14,4.96-12.14Z"/>
          <path class="cls-12" d="m205.35,132.09h0l3.8.07,3.02,8.65-2.46,9.91c-.72,2.89,2.54,8.68,2.46,11.88l-21.3,3.45-.46-14.23v-.46l-7.37-3.67,2.43-5.96c3.74-8.77,10.28-9.3,10.28-9.3l9.6-.34Z"/>
          <g class="cls-4">
            <path class="cls-3" d="m205.35,132.09h0l3.8.07,3.02,8.65-2.46,9.91c-.72,2.89,2.54,8.68,2.46,11.88l-21.3,3.45-.46-14.23v-.46l-7.37-3.67,2.43-5.96c3.74-8.77,10.28-9.3,10.28-9.3l9.6-.34Z"/>
          </g>
          <path class="cls-7" d="m209.31,132.18s-.09.02-.12.05c-.12.04-.25.08-.37.11-.49.09-.98.14-1.48.15l.05-.09,1.45,2.36.1.16-.19-.03c-.84-.15-1.7-.17-2.55-.08l.09-.11c.03.97.17,1.93.41,2.87l.06.19-.2-.05c-.97-.21-1.9-.55-2.77-1.02l.18-.08c-.17.85-.35,1.75-.54,2.66l-.04.2-.16-.12c-.38-.31-.75-.64-1.1-.99-.34-.34-.66-.7-.96-1.08l.17.02-2.44,1.92-.15.12-.04-.19c-.17-.85-.34-1.67-.5-2.46l.15.08-2.61.92-.18.06.05-.18c.27-1.04.53-1.98.76-2.82l.06.1-2.26-.39h-.09l.05-.08.99-1.45.27-.37c.06-.08.1-.12.1-.12s-.05.09-.07.14l-.24.38-.94,1.48-.04-.09,2.27.34h.09v.09l-.72,2.83-.13-.12,2.59-.92.12-.05.03.13.51,2.46-.19-.07,2.43-1.93.1-.08.08.1c.28.36.59.71.92,1.03.34.34.7.67,1.07.97l-.19.07c.18-.92.37-1.81.54-2.66l.03-.16.15.09c.85.46,1.76.79,2.7,1l-.13.14c-.24-.95-.37-1.93-.39-2.91v-.1h.1c.87-.09,1.75-.05,2.6.11l-.09.13c-.55-.92-1.03-1.74-1.41-2.39l-.05-.08h.09c.49,0,.98-.03,1.47-.09.16-.04.33-.08.49-.1Z"/>
          <path class="cls-7" d="m213.51,135.81c-.15-.06-.3-.12-.46-.16-.44-.12-.9-.13-1.35-.02l.04-.05c.09.5.22,1.11.41,1.8s.42,1.48.62,2.36l.03.13-.13-.04c-1.09-.32-2.36-.55-3.71-1.01l.12-.1c.14,1.31.13,2.75.21,4.31v.13h-.14c-1.22-.21-2.43-.53-3.6-.95-.15-.04-.32-.1-.36-.04-.09.11-.16.24-.2.38l-.38.92c-.25.62-.51,1.25-.77,1.88l-.08.19-.13-.16-2.44-3.02-.18-.22h.16l-3.91,2.69-.13.09-.05-.15c-.46-1.27-.87-2.5-1.28-3.69l.17.06c-1.37.89-2.83,1.63-4.36,2.19l-.16.06v-.19c.28-1.98.53-3.77.75-5.31l.11.09c-1.11.44-2.31.63-3.51.56h-.08l.03-.07.82-2.21c.1-.23.16-.42.22-.56.02-.07.05-.13.09-.19-.01.07-.03.13-.05.2-.05.15-.11.33-.19.58-.18.52-.46,1.27-.77,2.23l-.05-.08c1.18.05,2.35-.16,3.44-.6l.13-.05v.14c-.21,1.54-.46,3.32-.71,5.31l-.14-.11c1.51-.57,2.96-1.31,4.31-2.19l.12-.08.05.14,1.29,3.67-.18-.05,3.92-2.7.1-.06.07.09.18.22,2.43,3.03-.21.03.78-1.88.38-.92c.05-.17.15-.33.28-.46.05-.04.1-.07.16-.08h.16c.09.02.17.04.25.07,1.16.42,2.35.73,3.56.95l-.13.11c-.07-1.55-.05-3-.18-4.3v-.15l.14.05c1.33.46,2.6.71,3.69,1.04l-.1.09c-.19-.88-.42-1.66-.59-2.36s-.3-1.31-.38-1.83v-.04h.04c.46-.1.93-.08,1.37.06.16.06.3.14.44.23Z"/>
          <path class="cls-7" d="m190.53,151.23c-.17-.05-.32-.13-.46-.24-.39-.27-.72-.62-.99-1.01-.39-.6-.56-1.32-.5-2.03.06-1.58.95-3.02,2.34-3.78l-.06.09c.17-1.31.33-2.43.46-3.21.05-.43.12-.85.23-1.26,0,.43-.03.86-.09,1.28-.08.8-.21,1.92-.37,3.24v.05l-.06.03c-1.3.74-2.13,2.09-2.21,3.59-.07.67.08,1.35.42,1.93.24.39.55.74.92,1.03.13.09.26.19.38.3Z"/>
          <path class="cls-7" d="m191.32,141.63c-.06.03-.27-.27-.46-.68s-.31-.76-.25-.79.27.27.46.68.32.76.25.78Z"/>
          <path class="cls-2" d="m205.09,132.21l.66-14.97-5.96-4.5-5.4,2.64s-.18,6.79,0,9.73c.18,2.95,3.15,3.25,3.15,3.25,0,0-.07,1.73-.14,3.54-.08,2.11,1.56,3.89,3.67,3.99h.19c2.06,0,3.74-1.62,3.84-3.67Z"/>
          <path class="cls-14" d="m194.99,120.33c0,.21.17.38.38.38.21,0,.38-.17.38-.38,0-.21-.17-.38-.38-.38h0c-.21,0-.38.17-.38.38h0s0,0,0,0Z"/>
          <path class="cls-14" d="m194.62,119.91c.05.05.33-.19.73-.21s.71.17.76.12-.03-.11-.16-.2c-.37-.24-.85-.21-1.19.07-.12.11-.16.21-.13.22Z"/>
          <path class="cls-14" d="m199.35,120.33c0,.21.17.38.38.38s.38-.17.38-.38c0-.21-.17-.38-.38-.38s-.38.17-.38.38h0Z"/>
          <path class="cls-14" d="m199.11,119.91c.05.05.33-.19.73-.21s.71.17.75.12-.03-.11-.16-.2c-.37-.24-.85-.21-1.19.07-.08.05-.13.13-.13.22Z"/>
          <path class="cls-3" d="m199,123.72c-.62.32-1.28.54-1.96.68.31.42.86.58,1.34.38.45-.1.74-.56.63-1.01,0,0,0,0,0,0v-.05Z"/>
          <path class="cls-15" d="m197.54,128.36c1.4-.06,2.75-.51,3.9-1.32,0,0-.88,2.16-3.84,2.04l-.06-.72Z"/>
          <path class="cls-14" d="m214.31,125.7c-.37.01-.74-.07-1.07-.24-.49-.26-.89-.65-1.16-1.13-.34-.6-.63-1.22-.87-1.86-.55-1.37-.96-2.63-1.25-3.56-.04-.15-.08-.28-.12-.41s-.05-.3-.08-.4c-1.61-6.14-6.99-7.28-8.07-7.28s-3.14-.63-6.06,2.4c-.44.45-.81.97-1.11,1.53-.64.81-1.09,1.76-1.3,2.77-.13.48-.15.98-.07,1.46.05,0,.06-.56.29-1.41.14-.5.33-.99.57-1.45-.26,1.13-.15,2.32.3,3.39l1.04-.29,3.75-1.27c-.34-1.16.16-2.6.46-3.28l.03-.02c.43,2.51,2.44,4.45,4.96,4.81l.69,9.62c4.98-1.06,4.87-7.73,4.83-9.09.23.77.52,1.64.89,2.56.24.66.55,1.3.92,1.9.31.51.76.91,1.3,1.17.36.17.76.23,1.16.17.15-.01.29-.07.4-.16-.14.03-.29.06-.43.06Z"/>
          <path class="cls-14" d="m197.65,123.34c-.22-.06-.44-.08-.66-.08-.11,0-.21-.02-.23-.1-.01-.11,0-.23.06-.33l.27-.84c.2-.6.36-1.15.46-1.54.08-.21.13-.43.15-.65-.11.19-.2.4-.26.61-.14.39-.32.92-.52,1.53-.09.29-.18.58-.27.84-.06.13-.07.28-.04.42.03.07.09.13.17.15.06,0,.12,0,.18,0,.23.02.45.02.68-.01Z"/>
          <path class="cls-2" d="m206.06,123.22c-.05-.49,0-.98.16-1.45.16-.48.56-.83,1.06-.92.58-.02,1.09.39,1.19.97.07.58-.22,1.14-.72,1.42-.51.27-1.11.28-1.64.05"/>
          <path class="cls-15" d="m206.9,122.79s.16.04.37-.02c.27-.09.45-.34.46-.62.02-.14-.02-.28-.11-.39-.09-.07-.21-.11-.32-.1-.22.02-.38.08-.39.04s.1-.14.36-.21c.17-.04.35,0,.49.1.16.15.23.36.2.58-.01.2-.09.4-.22.55-.11.13-.26.21-.43.23-.3.03-.42-.13-.42-.15Z"/>
          <path class="cls-12" d="m202.41,239.81v-4.29l8.04-.05.06,6.27-.49.04c-2.22.14-11.28.54-12.77.1-1.65-.49,5.16-2.07,5.16-2.07Z"/>
          <path class="cls-14" d="m197.06,241.49c0-.07,3.01-.14,6.71-.14s6.71.06,6.71.14-3,.14-6.71.14-6.71-.06-6.71-.14Z"/>
          <path class="cls-14" d="m202.27,240.69c-.07.04-.22-.12-.38-.33s-.27-.39-.22-.46.26.06.44.28.22.46.16.5Z"/>
          <path class="cls-14" d="m201.76,240.97c-.07.03-.22-.17-.36-.42s-.25-.46-.19-.52.27.11.42.38.2.53.13.55Z"/>
          <path class="cls-14" d="m208.06,241.46s.04-.17.17-.4c.18-.3.42-.57.71-.78.29-.22.65-.34,1.02-.33.28,0,.43.12.42.16s-.17,0-.41.04c-.31.04-.61.17-.87.36-.26.2-.5.43-.71.68-.18.19-.3.3-.33.28Z"/>
          <path class="cls-14" d="m202.24,239.89c.04-.06.22-.03.42.04s.37.16.35.23-.22.11-.46.03-.35-.25-.32-.3Z"/>
          <path class="cls-14" d="m202.37,239.46c0-.07.22-.13.48-.13s.46.07.46.14-.21.14-.48.13-.47-.07-.46-.15Z"/>
          <path class="cls-7" d="m195.23,165.39l-4.4.74,2.53,3.12c.73,14.66.55,28.89,1.22,35.98.1,1.08,4.65,34.82,4.19,34.05l13.38.56-4-33.91,1.89-30.12c2.05-3.56,2.65-7.77,1.68-11.76l-.33-1.35"/>
          <path class="cls-14" d="m204.46,112.39c-.68-.26-1.19-.83-1.37-1.53-.17-.71.06-1.45.61-1.94.56-.47,1.35-.54,1.99-.19.48.33.83.82.99,1.37.15.36.19.76.12,1.14-.19.56-.65.98-1.23,1.11-.57.11-1.16.13-1.73.05"/>
          <path class="cls-14" d="m216.27,120.56c.05-.2.06-.4.03-.6-.05-.23-.16-.44-.32-.61-.21-.22-.49-.38-.79-.46-.37-.09-.75-.12-1.13-.08-.42.03-.86.1-1.35.11-.52.03-1.04-.09-1.49-.35-.45-.34-.77-.83-.89-1.37-.3-.97-.8-1.86-1.47-2.63-.54-.63-1.19-1.16-1.9-1.59-.67-.37-1.38-.66-2.12-.88h.16c.16.01.31.04.46.09.56.14,1.09.35,1.59.63.74.42,1.41.95,1.98,1.59.7.78,1.22,1.69,1.54,2.69.11.5.39.94.79,1.26.42.24.89.36,1.37.33.46,0,.92-.07,1.34-.09.4-.03.8,0,1.19.11.33.09.62.28.84.53.16.2.27.43.31.69.02.15,0,.31-.04.46-.06.13-.11.18-.11.17Z"/>
          <path class="cls-11" d="m207.82,123.19s.22.15.22.55c0,.23-.11.46-.28.61-.21.2-.5.3-.79.25-.29-.05-.54-.23-.67-.49-.11-.21-.13-.45-.06-.67.05-.2.19-.37.38-.46-.11.14-.18.31-.21.49-.03.18,0,.36.09.52.12.18.3.31.52.35.22.03.43-.03.6-.17.14-.12.23-.28.26-.46.03-.32-.1-.51-.05-.53Z"/>
          <path class="cls-12" d="m206.62,112.97c-.98-.98-2.23-1.64-3.59-1.9,1.45-.06,2.82.67,3.59,1.9Z"/>
          <path class="cls-11" d="m208.32,122.63s.13-.04.22.11c.04.09.04.2,0,.29-.06.12-.18.19-.31.19-.2.01-.38-.14-.39-.34,0-.02,0-.05,0-.07,0-.16.11-.21.13-.19s0,.09.04.18c.01.1.11.18.21.17.08,0,.15-.06.16-.14,0,0,0,0,0,0v-.04c0-.09-.06-.13-.05-.17Z"/>
          <path class="cls-7" d="m205.19,131.75c.05.16.06.33.05.49,0,.46-.1.91-.27,1.33-.8,2.05-3.11,3.07-5.17,2.27-.24-.09-.47-.21-.69-.35-.58-.37-1.05-.88-1.37-1.48-.22-.4-.36-.84-.43-1.29-.03-.16-.03-.33,0-.49.1.6.29,1.17.58,1.7.33.56.79,1.03,1.34,1.37,1.39.84,3.16.73,4.44-.27.5-.41.9-.93,1.16-1.53.21-.56.33-1.15.35-1.75Z"/>
          <path class="cls-14" d="m204.23,236.77s-.02-.08-.03-.12c0-.1-.03-.22-.05-.37-.05-.34-.11-.81-.19-1.41-.16-1.22-.36-2.99-.6-5.19-.49-4.38-1.09-10.44-1.63-17.14s-.92-12.79-1.13-17.19c-.11-2.2-.19-3.98-.23-5.21-.02-.61-.03-1.08-.04-1.42v-.37s0-.08,0-.12c0,.04,0,.08,0,.12,0,.12,0,.25.03.37.02.34.05.82.09,1.42.07,1.25.17,3.02.3,5.21.27,4.4.67,10.47,1.21,17.18.54,6.7,1.11,12.77,1.55,17.15.22,2.18.4,3.95.53,5.2.06.6.11,1.07.14,1.41,0,.12.01.25.03.37.01.04.02.08.02.13Z"/>
          <path class="cls-14" d="m211.71,236.8c-.17.04-.34.07-.51.07-.33.03-.81.06-1.4.09-1.19.06-2.83.09-4.64.06s-3.45-.08-4.63-.13l-1.4-.07c-.17,0-.35-.01-.52-.05.17-.04.34-.05.52-.04h1.41c1.18,0,2.82.03,4.63.05s3.44.03,4.63,0h1.4c.17-.01.35,0,.52.02Z"/>
          <path class="cls-7" d="m209.31,132.18c-.63.23-1.3.35-1.97.35l.09-.16.88,1.43.56.92.13.22-.26-.05c-.85-.12-1.7-.2-2.56-.22.24-.08.48-.12.73-.11.62-.04,1.25,0,1.87.1l-.12.17-.57-.92-.86-1.45-.1-.16h.18c.59-.03,1.09-.06,1.43-.1.18-.03.37-.04.55-.04Z"/>
          <path class="cls-7" d="m213.51,135.81s-.66-.12-1.81-.15l.08-.09c.27,1.07.63,2.5,1.04,4.15l.05.19-.19-.05-2.91-.79-.79-.22.16-.12c.06,1.58.12,3.05.17,4.31v.14l-.13-.04-2.8-.78-.77-.23c-.09-.02-.18-.06-.27-.11.1,0,.19.02.28.05l.79.18,2.81.7-.12.11c-.06-1.26-.14-2.73-.22-4.3v-.17l.16.05.79.22,2.91.81-.14.14c-.38-1.66-.71-3.1-.97-4.18l-.02-.09h.1c.45.02.89.08,1.33.17.16.02.31.06.46.11Z"/>
          <path class="cls-7" d="m214.09,147.43c-.13-.09-.24-.21-.33-.34-.19-.24-.4-.65-.71-1.11h.12c-.74,1.45-1.61,2.83-2.59,4.12l-.09.12-.1-.12c-.46-.57-.92-1.18-1.37-1.83l-1.05-1.37h.17l-1.7,1.49-.76.66-.35.31-.17.15-.04.04h-.05s-.15-.05-.12-.1h0v-.03h0s.03.08.05.07h0l-.08.02-.03-.09c-.27-.92-.46-1.64-.57-2.16-.08-.27-.11-.54-.09-.82.05.27.11.53.19.8.14.51.36,1.24.66,2.13l-.11-.06s.07,0,.1,0c.05.02.08.06.08.11,0,.02,0,.04,0,.06h-.02l-.06-.03s-.01-.03-.03-.05l-.03-.03h0l.04-.04.17-.15.35-.31c.24-.22.49-.46.75-.67l1.67-1.49.1-.09.08.11,1.05,1.37c.49.63.95,1.25,1.37,1.83h-.19c.98-1.28,1.87-2.64,2.65-4.05l.06-.11.06.11c.29.49.46.92.65,1.15s.28.38.27.4Z"/>
          <path class="cls-7" d="m205.99,140.92c0,.16-.03.31-.08.46-.07.28-.17.69-.32,1.19-.29.99-.74,2.36-1.32,3.83s-1.18,2.78-1.65,3.7c-.23.46-.43.83-.58,1.09-.06.14-.15.26-.24.38.19-.53.41-1.04.66-1.54.43-.94,1-2.25,1.58-3.72s1.05-2.82,1.37-3.8c.16-.54.34-1.07.57-1.59Z"/>
          <path class="cls-7" d="m209.31,132.18c-.63.23-1.3.35-1.97.35l.09-.16.88,1.43.56.92.13.22-.26-.05c-.85-.12-1.7-.2-2.56-.22.24-.08.48-.12.73-.11.62-.04,1.25,0,1.87.1l-.12.17-.57-.92-.86-1.45-.1-.16h.18c.59-.03,1.09-.06,1.43-.1.18-.03.37-.04.55-.04Z"/>
          <path class="cls-7" d="m205.99,140.92c0,.16-.03.31-.08.46-.07.28-.17.69-.32,1.19-.29.99-.74,2.36-1.32,3.83s-1.18,2.78-1.65,3.7c-.23.46-.43.83-.58,1.09-.06.14-.15.26-.24.38.19-.53.41-1.04.66-1.54.43-.94,1-2.25,1.58-3.72s1.05-2.82,1.37-3.8c.16-.54.34-1.07.57-1.59Z"/>
          <rect class="cls-12" x="168.97" y="128.35" width="45.18" height="69.47" rx="3.56" ry="3.56" transform="translate(-18.61 301.36) rotate(-73.75)"/>
          <g class="cls-9">
            <rect x="168.97" y="128.35" width="45.18" height="69.47" rx="3.56" ry="3.56" transform="translate(-18.61 301.36) rotate(-73.75)"/>
          </g>
          <path class="cls-3" d="m161.44,161.13l-1.08,3.7-.38-.11.98-3.36-.88-.26.1-.34,1.26.37Z"/>
          <path class="cls-3" d="m165.21,165.6l-.1.34-2.62-.73.08-.27,1.98-1.06c.54-.29.69-.52.77-.77.12-.43-.1-.78-.66-.94-.38-.14-.79-.09-1.13.11l-.2-.31c.44-.26.98-.32,1.47-.15.75.22,1.11.74.92,1.37-.1.35-.31.64-.94.98l-1.62.87,2.08.55Z"/>
          <path class="cls-3" d="m169.27,166.12l-.74-.22-.28.97-.38-.11.28-.98-2.09-.59.08-.27,2.68-1.88.42.12-2.59,1.83,1.61.46.25-.86.37.11-.25.86.74.22-.1.33Z"/>
          <path class="cls-3" d="m174.94,167.76l-.74-.22-.28.98-.38-.11.28-.98-2.09-.61.08-.27,2.68-1.88.42.12-2.59,1.83,1.61.46.25-.86.37.11-.25.86.74.22-.1.36Z"/>
          <path class="cls-3" d="m178.21,168.58c-.19.63-.77.99-1.67.73-.49-.12-.92-.43-1.19-.86l.27-.25c.23.38.6.65,1.04.76.63.18,1.05-.03,1.18-.46s-.07-.86-1.01-1.13l-.79-.23.73-1.8,2.03.59-.1.34-1.7-.49-.46,1.15.46.14c1.1.31,1.39.87,1.21,1.53Z"/>
          <path class="cls-3" d="m181.88,169.63c-.19.63-.86.99-1.49.81l-.1-.04c-.99-.28-1.32-1.12-.98-2.29.37-1.26,1.25-1.71,2.25-1.42.31.07.59.23.82.46l-.24.26c-.18-.19-.41-.33-.67-.38-.8-.23-1.46.13-1.75,1.14-.03.1-.05.2-.07.31.34-.35.85-.47,1.32-.31.64.11,1.06.71.95,1.35,0,0,0,0,0,0l-.03.12Zm-.38-.1c.13-.44-.12-.91-.57-1.04,0,0,0,0,0,0-.04-.01-.08-.02-.12-.03-.42-.21-.93-.03-1.14.39-.21.42-.03.93.39,1.14h0c.09.05.19.07.29.08.43.19.92,0,1.11-.43.02-.04.03-.07.04-.11Z"/>
          <path class="cls-3" d="m186.93,171.16c-.18.62-.77.96-1.66.7-.49-.13-.92-.43-1.2-.86l.27-.25c.23.38.59.65,1.02.77.61.18,1.04,0,1.17-.46s-.1-.83-.79-1.03l-.27-.08.08-.28,1.4-.99-1.89-.55.1-.34,2.38.69-.08.27-1.43,1.03c.78.24,1.06.77.88,1.37Z"/>
          <path class="cls-3" d="m190.66,172.19c-.2.64-.87.99-1.51.8,0,0,0,0,0,0l-.09-.03c-.98-.28-1.32-1.12-.98-2.29.37-1.26,1.25-1.71,2.25-1.43.31.08.59.24.82.46l-.24.26c-.18-.19-.41-.32-.67-.38-.8-.23-1.46.13-1.75,1.14-.03.1-.05.2-.07.31.34-.36.86-.48,1.32-.3.64.11,1.06.71.96,1.35,0,0,0,0,0,.01,0,.04-.01.08-.03.11Zm-.38-.1c.13-.45-.13-.92-.58-1.05,0,0,0,0,0,0l-.11-.02c-.42-.21-.93-.03-1.14.39-.21.42-.03.93.39,1.14.09.05.19.07.29.08.43.19.92,0,1.11-.43,0,0,0,0,0,0,0-.04.03-.08.04-.12h0Z"/>
          <path class="cls-3" d="m194.82,170.58l-.08.27-2.55,2.98-.41-.12,2.5-2.92-1.91-.55-.2.69-.38-.11.3-1.03,2.72.79Z"/>
          <path class="cls-3" d="m200.11,172.13l-.08.27-2.55,2.98-.41-.12,2.5-2.92-1.91-.55-.2.69-.38-.11.3-1.03,2.72.79Z"/>
          <path class="cls-3" d="m202.98,175.86c-.19.66-.87.92-1.75.64s-1.31-.82-1.12-1.48c.12-.44.53-.73.98-.7-.32-.21-.46-.62-.34-.99.17-.6.8-.83,1.58-.6s1.2.76,1.02,1.37c-.1.38-.44.64-.83.64.39.22.58.68.46,1.11Zm-.39-.12c.13-.46-.18-.86-.83-1.05s-1.13,0-1.26.46.17.86.83,1.05,1.13,0,1.26-.46Zm-.72-1.35c.58.17,1,0,1.11-.39s-.17-.78-.72-.94-.99,0-1.11.4.12.77.72.93Z"/>
          <path class="cls-3" d="m206.82,176.06c-.37,1.26-1.25,1.72-2.25,1.43-.31-.08-.59-.23-.82-.46l.24-.26c.18.19.41.33.66.38.8.23,1.46-.13,1.75-1.14.03-.1.05-.2.07-.31-.34.36-.86.48-1.32.3-.63-.11-1.05-.71-.95-1.34,0,0,0,0,0,0,0-.04.01-.08.03-.12.19-.63.85-.99,1.48-.81l.11.04c.98.28,1.31,1.12.97,2.29Zm-.31-.88c.1-.5-.22-.98-.72-1.08h-.03c-.44-.16-.92.06-1.08.49-.16.42.04.89.45,1.07.06.02.11.04.17.05.47.19,1-.03,1.2-.5,0,0,0,0,0,0,0-.01,0-.02,0-.03Z"/>
          <path class="cls-3" d="m211.11,175.33l-1.08,3.7-.38-.11.98-3.36-.88-.26.1-.34,1.26.37Z"/>
          <path class="cls-3" d="m213.18,179.8l-.1.34-2.6-.73.08-.27,1.98-1.06c.54-.29.69-.52.77-.77.12-.43-.1-.78-.66-.94-.38-.14-.79-.09-1.13.11l-.2-.31c.44-.26.98-.31,1.47-.14.75.22,1.11.74.92,1.37-.11.35-.31.64-.94.98l-1.62.87,2.06.55Z"/>
          <path class="cls-3" d="m216.53,180.05c-.18.62-.77.96-1.66.7-.49-.13-.91-.45-1.18-.88l.27-.25c.23.38.59.66,1.02.77.61.18,1.04,0,1.17-.46s-.1-.83-.78-1.03l-.27-.08.08-.28,1.4-.99-1.89-.55.1-.34,2.38.69-.08.27-1.43,1.01c.78.28,1.05.82.87,1.41Z"/>
          <rect class="cls-3" x="201.67" y="165.26" width="1.67" height="30.89" transform="translate(-27.62 324.59) rotate(-73.76)"/>
          <rect class="cls-3" x="207.96" y="178.09" width="1.68" height="15.85" transform="translate(-28.19 334.45) rotate(-73.76)"/>
          <rect class="cls-14" x="162.83" y="147.98" width="9.68" height="12.96" rx="2.27" ry="2.27" transform="translate(-27.54 272.21) rotate(-73.75)"/>
          <path class="cls-3" d="m160.85,154.72l.17-.6,6.42,1.87c.74.22,1.52-.21,1.73-.95.22-.74-.21-1.52-.95-1.73l-6.42-1.86.17-.6,6.42,1.86c1.06.36,1.62,1.51,1.26,2.57-.34.99-1.37,1.55-2.39,1.31l-6.42-1.87Z"/>
          <rect class="cls-3" x="171.34" y="153.47" width=".62" height="4.58" transform="translate(-26.02 276.8) rotate(-73.7)"/>
          <rect class="cls-3" x="180.68" y="130.15" width="2.86" height="33.34" transform="translate(-9.8 280.57) rotate(-73.75)"/>
          <path class="cls-2" d="m214.31,147.29l-7.87-5.17s-3.84,11.07-5.04,11.18c-6.53.6-13.51-1.57-15.96-2.42-.25-.28-.53-.61-.85-1.03-.27-.35-.48-.75-.61-1.17-.19-.52-.31-1.06-.35-1.61.03-.28-.18-.53-.46-.56-.16-.01-.31.04-.42.16-.28.37-.36,1.76.29,3.27s-1.64.31-2.47-.11-3.5-1.6-3.83-1.45c-.49.23-.33.79.51,1.2s3.3,1.78,3.06,2.21-4.48-1.78-4.48-1.78c0,0-.83-.61-1.13-.12-.54.88,4.12,2.89,4.58,3.07.31.13.06.6-.27.46s-4.18-2.29-4.73-1.4c-.43.69,3.84,1.69,4.39,2.58s-3.16-1.09-3.54-.42c-.14.25-.21.46,2.08,1.29,1.68.52,3.38.96,5.1,1.3v.02s23.4,10.47,27.82.37c4.74-10.77,4.16-9.86,4.16-9.86Z"/>
          <path class="cls-12" d="m209.15,132.16s7.15.84,6.42,9.35c-.48,5.26-1.96,10.38-4.35,15.08l-9.38-4.92c2.11-4.21,3.7-8.66,4.73-13.26l2.63-6.25h-.05Z"/>
          <g class="cls-4">
            <path class="cls-3" d="m209.15,132.16s7.15.84,6.42,9.35c-.48,5.26-1.96,10.38-4.35,15.08l-9.38-4.92c2.11-4.21,3.7-8.66,4.73-13.26l2.63-6.25h-.05Z"/>
          </g>
          <path class="cls-7" d="m213.51,135.81s-.66-.12-1.81-.15l.08-.09c.27,1.07.63,2.5,1.04,4.15l.05.19-.19-.05-2.91-.79-.79-.22.16-.12c.06,1.58.12,3.05.17,4.31v.14l-.13-.04-2.8-.78-.77-.23c-.09-.02-.18-.06-.27-.11.1,0,.19.02.28.05l.79.18,2.81.7-.12.11c-.06-1.26-.14-2.73-.22-4.3v-.17l.16.05.79.22,2.91.81-.14.14c-.38-1.66-.71-3.1-.97-4.18l-.02-.09h.1c.45.02.89.08,1.33.17.16.02.31.06.46.11Z"/>
          <path class="cls-7" d="m214.09,147.43c-.13-.09-.24-.21-.33-.34-.19-.24-.4-.65-.71-1.11h.12c-.74,1.45-1.61,2.83-2.59,4.12l-.09.12-.1-.12c-.46-.57-.92-1.18-1.37-1.83l-1.05-1.37h.17l-1.7,1.49-.76.66-.35.31-.17.15-.04.04h-.05s-.15-.05-.12-.1h0v-.03h0s.03.08.05.07h0l-.08.02-.03-.09c-.27-.92-.46-1.64-.57-2.16-.08-.27-.11-.54-.09-.82.05.27.11.53.19.8.14.51.36,1.24.66,2.13l-.11-.06s.07,0,.1,0c.05.02.08.06.08.11,0,.02,0,.04,0,.06h-.02l-.06-.03s-.01-.03-.03-.05l-.03-.03h0l.04-.04.17-.15.35-.31c.24-.22.49-.46.75-.67l1.67-1.49.1-.09.08.11,1.05,1.37c.49.63.95,1.25,1.37,1.83h-.19c.98-1.28,1.87-2.64,2.65-4.05l.06-.11.06.11c.29.49.46.92.65,1.15s.28.38.27.4Z"/>
        </g>
      </g>
    </g>
  </g>
</svg>