<?xml version="1.0" encoding="UTF-8"?>
<svg id="Layer_2" data-name="Layer 2" xmlns="http://www.w3.org/2000/svg" viewBox="0 0 52.5 57">
  <defs>
    <style>
      .cls-1, .cls-2 {
        fill: #007f12;
      }

      .cls-2 {
        opacity: .18;
      }
    </style>
  </defs>
  <g id="Layer_1-2" data-name="Layer 1">
    <g>
      <circle class="cls-2" cx="24" cy="28.5" r="24"/>
      <path class="cls-1" d="m24,0c-.48,0-.96.01-1.43.04v1c.47-.02.95-.04,1.43-.04,14.83,0,26.95,11.8,27.47,26.5h1C51.94,12.25,39.38,0,24,0Z"/>
      <path class="cls-1" d="m51.5,28.5c0,15.16-12.34,27.5-27.5,27.5-.48,0-.96-.01-1.43-.04v1c.47.02.95.04,1.43.04,15.71,0,28.5-12.79,28.5-28.5h-1Z"/>
      <g>
        <path class="cls-1" d="m21.41,31.02c-.28,0-.53-.2-.57-.49-.05-.32.17-.61.48-.67l8.64-1.38c.31-.05.61.17.67.48.05.32-.17.61-.48.67l-8.64,1.38s-.06,0-.09,0Z"/>
        <path class="cls-1" d="m20.61,40.06c-1.39,0-2.51-1.13-2.51-2.51s1.13-2.51,2.51-2.51,2.51,1.13,2.51,2.51-1.13,2.51-2.51,2.51Zm0-3.86c-.74,0-1.35.61-1.35,1.35s.61,1.35,1.35,1.35,1.35-.61,1.35-1.35-.61-1.35-1.35-1.35Z"/>
        <path class="cls-1" d="m32.43,38.76c-1.39,0-2.51-1.13-2.51-2.51s1.13-2.51,2.51-2.51,2.51,1.13,2.51,2.51-1.13,2.51-2.51,2.51Zm0-3.86c-.74,0-1.35.61-1.35,1.35s.61,1.35,1.35,1.35,1.35-.61,1.35-1.35-.61-1.35-1.35-1.35Z"/>
        <g>
          <path class="cls-1" d="m25.52,28.3c-.14,0-.27-.05-.38-.14l-2.03-1.79c-.24-.21-.27-.58-.06-.82.21-.24.58-.27.82-.06l1.65,1.47,1.61-1.4c.24-.21.61-.18.82.06.21.24.18.61-.06.82l-1.99,1.73c-.11.09-.24.14-.38.14Z"/>
          <path class="cls-1" d="m25.52,27.67c-.31,0-.57-.25-.58-.56l-.17-5.65c-.01-.32.24-.59.56-.6.33,0,.59.24.6.56l.17,5.65c.01.32-.24.59-.56.6,0,0-.01,0-.02,0Z"/>
        </g>
        <g>
          <path class="cls-1" d="m19.15,24.73l4.02-.14c.8-.02.84-1.2-.06-1.16l-3.99.14c-.32,0-.57.28-.56.6,0,.32.28.58.6.56Z"/>
          <path class="cls-1" d="m34.28,23.36c-.11-.13-.28-.21-.45-.2l-6.18.17c-.73.01-.72,1.18,0,1.16l5.51-.15-1.01,6.12-12.16,3.16-3.69-12.34c-.07-.22-.26-.38-.49-.41l-5.04-.61c-.32-.04-.61.19-.65.51-.04.32.19.61.51.65l4.67.56,3.74,12.52c.08.25.31.41.56.41.05,0,.1,0,.15-.02l13.07-3.39c.22-.06.39-.24.43-.47l1.18-7.19c.03-.17-.02-.35-.14-.48Z"/>
        </g>
      </g>
    </g>
  </g>
</svg>