<?xml version="1.0" encoding="UTF-8"?>
<svg id="Layer_2" data-name="Layer 2" xmlns="http://www.w3.org/2000/svg" viewBox="0 0 52.47 52.5">
  <defs>
    <style>
      .cls-1 {
        opacity: .18;
      }

      .cls-1, .cls-2 {
        fill: #fbb03b;
      }
    </style>
  </defs>
  <g id="Layer_1-2" data-name="Layer 1">
    <g>
      <path class="cls-2" d="m24,0c-.48,0-.96.01-1.43.04v1c.47-.02.95-.04,1.43-.04,14.83,0,26.95,11.8,27.47,26.5h1C51.94,12.25,39.38,0,24,0Z"/>
      <circle class="cls-1" cx="24" cy="28.5" r="24"/>
      <g>
        <path class="cls-2" d="m31.19,28.45h-5.29c-.33,0-.59.26-.59.59v3.89c0,.33.26.59.59.59h5.29c.33,0,.59-.26.59-.59v-3.89c0-.33-.26-.59-.59-.59Zm-3.42,3.23c-.38,0-.7-.31-.7-.7s.31-.7.7-.7.7.31.7.7-.31.7-.7.7Z"/>
        <path class="cls-2" d="m25.91,23.33h-9.37c-.33,0-.59-.26-.59-.59s.26-.59.59-.59h9.37c.33,0,.59.26.59.59s-.26.59-.59.59Z"/>
        <path class="cls-2" d="m31.79,37.91c-.33,0-.59-.26-.59-.59v-2.46c0-.33.26-.59.59-.59s.59.26.59.59v2.46c0,.33-.26.59-.59.59Z"/>
        <path class="cls-2" d="m37.84,22.04l-4.1-4.32c-.1-.11-.25-.17-.4-.18-.15,0-.3.06-.41.16l-4.86,4.78c-.16.16-.21.4-.13.62.09.21.29.35.52.35h2.48v3.63c0,.31.25.57.57.57h1.44c.15,0,.3-.06.41-.17l4.47-4.65c.21-.22.21-.56,0-.78Zm-4.21,1.82v.48h-.29v-.47c-.27,0-.55-.09-.71-.2l.11-.31c.17.11.41.2.67.2.33,0,.55-.19.55-.45s-.18-.41-.52-.55c-.47-.19-.76-.4-.76-.8s.27-.68.7-.75v-.47h.29v.45c.28,0,.47.08.6.16l-.12.31c-.1-.06-.29-.16-.58-.16-.36,0-.49.21-.49.4,0,.24.17.36.57.53.48.19.72.44.72.85,0,.37-.25.71-.73.79Z"/>
        <path class="cls-2" d="m30.28,28.03v-3.38c0-.33-.26-.59-.59-.59h-14.5c-.33,0-.59.26-.59.59v12.66c0,.33.26.59.59.59h14.5c.33,0,.59-.26.59-.59v-3.38h-1.99v.1c0,.1-.08.18-.18.18s-.18-.08-.18-.18v-.1h-2.46c-.38,0-.69-.31-.69-.69v-4.53c0-.38.31-.69.69-.69h2.46v-.1c0-.1.08-.18.18-.18s.18.08.18.18v.1h1.99Zm-13.69-.1c0-.1.08-.18.18-.18s.18.08.18.18v1.22c0,.1-.08.18-.18.18s-.18-.08-.18-.18v-1.22Zm0,2.44c0-.1.08-.18.18-.18s.18.08.18.18v1.22c0,.1-.08.18-.18.18s-.18-.08-.18-.18v-1.22Zm0,2.44c0-.1.08-.18.18-.18s.18.08.18.18v1.22c0,.1-.08.18-.18.18s-.18-.08-.18-.18v-1.22Zm.86,3.3h-.68c-.1,0-.18-.08-.18-.18v-.68c0-.1.08-.18.18-.18s.18.08.18.18v.51h.51c.1,0,.18.08.18.18s-.08.18-.18.18Zm0-9.91h-.51v.51c0,.1-.08.18-.18.18s-.18-.08-.18-.18v-.68c0-.1.08-.18.18-.18h.68c.1,0,.18.08.18.18s-.08.18-.18.18Zm2.85,9.91h-1.43c-.1,0-.18-.08-.18-.18s.08-.18.18-.18h1.43c.1,0,.18.08.18.18s-.08.18-.18.18Zm0-9.91h-1.43c-.1,0-.18-.08-.18-.18s.08-.18.18-.18h1.43c.1,0,.18.08.18.18s-.08.18-.18.18Zm2.85,9.91h-1.43c-.1,0-.18-.08-.18-.18s.08-.18.18-.18h1.43c.1,0,.18.08.18.18s-.08.18-.18.18Zm0-9.91h-1.43c-.1,0-.18-.08-.18-.18s.08-.18.18-.18h1.43c.1,0,.18.08.18.18s-.08.18-.18.18Zm4.28,9.56h.51v-.51c0-.1.08-.18.18-.18s.18.08.18.18v.68c0,.1-.08.18-.18.18h-.68c-.1,0-.18-.08-.18-.18s.08-.18.18-.18Zm-1.43,0c.1,0,.18.08.18.18s-.08.18-.18.18h-1.43c-.1,0-.18-.08-.18-.18s.08-.18.18-.18h1.43Zm0-9.56h-1.43c-.1,0-.18-.08-.18-.18s.08-.18.18-.18h1.43c.1,0,.18.08.18.18s-.08.18-.18.18Zm2.11.68c-.1,0-.18-.08-.18-.18v-.51h-.51c-.1,0-.18-.08-.18-.18s.08-.18.18-.18h.68c.1,0,.18.08.18.18v.68c0,.1-.08.18-.18.18Z"/>
      </g>
    </g>
  </g>
</svg>